<svg width="51" height="27" viewBox="0 0 51 27" fill="none" xmlns="http://www.w3.org/2000/svg">
<path fill-rule="evenodd" clip-rule="evenodd" d="M19.8708 26.5037C19.3846 26.275 19.166 25.7028 19.376 25.2082L29.6682 0.956518C29.8898 0.434285 30.501 0.200818 31.0144 0.442304L31.1292 0.496292C31.6154 0.725032 31.834 1.29717 31.624 1.79184L21.3318 26.0435C21.1102 26.5657 20.499 26.7992 19.9856 26.5577L19.8708 26.5037Z" fill="white"/>
<path fill-rule="evenodd" clip-rule="evenodd" d="M15.1581 6.52047C15.662 6.23856 16.2993 6.44083 16.5484 6.96174L16.5953 7.05977C16.8229 7.53563 16.6417 8.10643 16.1814 8.36395L5.87881 14.1273C5.19642 14.509 5.19642 15.491 5.87881 15.8727L16.1814 21.6361C16.6417 21.8936 16.8229 22.4644 16.5953 22.9402L16.5484 23.0383C16.2993 23.5592 15.662 23.7614 15.1581 23.4795L1.56009 15.8727C0.877703 15.491 0.877704 14.509 1.56009 14.1273L15.1581 6.52047Z" fill="white"/>
<path fill-rule="evenodd" clip-rule="evenodd" d="M35.8419 23.4795C35.338 23.7614 34.7007 23.5592 34.4516 23.0383L34.4047 22.9402C34.1771 22.4644 34.3583 21.8936 34.8186 21.636L45.1212 15.8727C45.8036 15.491 45.8036 14.509 45.1212 14.1273L34.8186 8.36395C34.3583 8.10643 34.1771 7.53563 34.4047 7.05977L34.4516 6.96174C34.7007 6.44083 35.338 6.23856 35.8419 6.52046L49.4399 14.1273C50.1223 14.509 50.1223 15.491 49.4399 15.8727L35.8419 23.4795Z" fill="white"/>
</svg>
