<?xml version="1.0" encoding="UTF-8"?><svg id="Layer_2" xmlns="http://www.w3.org/2000/svg" viewBox="0 0 145.88 142.32"><defs><style>.cls-1{fill:#7696a8;}</style></defs><g id="Layer_1-2"><g><path class="cls-1" d="M145.45,6.79l.43-6.79H0L8.59,12.78h123.03c-2.28,10.08-9.17,27.87-29.56,29.3l-5.3,.37,4.64-22.12h-13.02l-4.87,23.04-8.23,.58-13.24,.93-2.75,.19,2.59,.6h0l12.45,2.86,7.73,1.78-3.16,15.07-3.59,15.33-14.42,61.62,10.4-2.9c1.07-.3,26.41-7.51,48.36-25.89,13.74-11.5,21.38-22.5,22.9-32.83,.48-3.27,.38-6.47-.37-9.59-2.54-10.53-11.47-17.62-20.1-22.14,16.59-10.02,22.63-30.29,23.39-42.17Zm-15.7,67.32c.49,2.03,.39,4.23-.23,6.58-1.75,6.64-7.85,14.46-18.08,23.03-11.47,9.61-24.24,15.92-32.98,19.53l9.96-42.57,2.94-12.56,3.14-14.97,6.58,1.51c7.07,1.62,25.99,8.28,28.67,19.44Z"/><path class="cls-1" d="M12.51,19.64l8.59,12.78H63.33l-2.44,11.77-.16,.79-2.39,11.84-3.62,17.93-.12-.05-8.4,42.9c-6.48-6.88-15.53-17.88-22.05-31.35-3.4-7.03-5.47-13.14-6.5-18.45H4.67c1.05,7.09,3.67,15.08,7.99,24.01,12.47,25.77,32.61,42.75,33.47,43.47l8.29,6.92,10.82-55.28,4.83-23.74,3.12-15.34,.95-4.58,4.9-23.62H12.51Z"/></g></g></svg>