<?xml version="1.0" encoding="UTF-8"?><svg id="Layer_2" xmlns="http://www.w3.org/2000/svg" viewBox="0 0 228.2 309.23"><defs><style>.cls-1{fill:#fff;}.cls-2{fill:#91344f;}.cls-3{fill:none;}.cls-4{fill:#e8e8e8;}.cls-5{fill:#7696a8;}</style></defs><g id="Layer_1-2"><rect class="cls-2" x="113.54" y="116.23" width=".4" height=".4"/><path class="cls-5" d="M197.07,46.78c-2.28-3.4-3.4-6.71-2.52-9.71,.47-1.6,1.42-2.79,2.52-3.75,2.78-2.42,6.58-3.35,6.49-5.26-.06-1.32-1.99-2.64-6.49-3.92-4.79-1.36-12.52-2.68-24.09-3.9,0-.02,0-.04,0-.06,.13-2.08,2.58-3.38,5-4.48,2.44-1.11,4.86-2.03,4.82-3.34-.01-.51-.4-1.11-1.11-1.75-6.92-6.34-44.64-17.76-67.58-4.37-22.95-13.39-60.67-1.98-67.58,4.37-.71,.65-1.1,1.24-1.11,1.75-.08,2.62,9.56,3.65,9.82,7.82,0,.02,0,.04,0,.06-11.58,1.22-19.31,2.54-24.1,3.9-4.5,1.28-6.43,2.6-6.49,3.92-.09,1.91,3.71,2.84,6.49,5.26,1.11,.96,2.06,2.16,2.52,3.75,.88,3-.25,6.31-2.52,9.71C22.66,59.45-1.91,73.43,.12,77.46c1.22,2.42,16.11-8.84,23.44-3.97,.06,.04,.11,.09,.17,.14C3.73,110.28,2.29,121.16,5.46,123.62c1.85,1.43,6.26,.76,11.21-1.66-3.72,6.92-7.2,16.51-9.1,25.02-.99,4.42-1.55,8.54-1.49,11.84,.06,3.4,.77,5.93,2.35,6.99,3.23,2.16,10.28-1.63,15.96-7.3,.89,12.09-10.15,38.48-5.89,40.48,2.51,1.18,7.85-7.23,12.62-12.3,2.3-2.45,4.47-4.13,6.13-3.57,7.66,2.58-3.34,40.54-2.95,60.4,.09,4.71,.82,7.85,2.59,8.46,2.42,.83,5.88-3.38,9.51-8.46,5.13-7.18,10.6-16.11,13.93-14.98,2.43,.82,2.87,6.72,2.31,14.98-1.57,23.02-10.93,64.43-6.63,65.68,4.93,1.43,23.73-51.11,28.85-49.52,3.36,1.04-2.84,24.31,1.44,25.96,5.21,2.01,22.19-29.4,27.8-40.55,5.61,11.15,22.59,42.56,27.8,40.55,4.28-1.66-1.92-24.92,1.44-25.96,5.11-1.59,23.92,50.95,28.85,49.52,4.3-1.25-5.06-42.66-6.63-65.68-.56-8.26-.13-14.16,2.31-14.98,3.33-1.13,8.8,7.79,13.93,14.98,3.63,5.08,7.09,9.29,9.51,8.46,1.77-.61,2.5-3.76,2.59-8.46,.39-19.86-10.61-57.83-2.95-60.4,1.66-.56,3.83,1.12,6.13,3.57,4.77,5.07,10.11,13.48,12.62,12.3,4.45-2.09-7.74-30.68-5.71-41.94,5.87,6.45,13.85,11.1,17.35,8.76,1.41-.94,2.12-3.07,2.3-5.92,.17-2.74-.14-6.16-.83-9.91-2.53-13.8-10-31.98-15.98-36.48,8.39,1.96,16.16,1.01,18.49-2.14,2.85-3.83-.31-13.71-20.83-37.73,.06-.04,.11-.09,.16-.13,7.33-4.87,22.22,6.38,23.44,3.97,2.03-4.03-22.54-18.01-31.01-30.68Zm-11.97,95.42c-2.88,8.49-7.11,16.31-12.43,23.18,0,0-13.44,19.69-19.65,32.14-1.54,3.09-2.64,5.73-2.98,7.51h.04s-.04,.07-.06,.11c-.05,.3-.08,.57-.09,.82v2.95h-.04c.03,.48,.04,.96,.04,1.44,0,16.2-16.04,19.58-35.82,19.58s-35.31-3-35.78-18.87c0-.24-.04-.47-.04-.72,0-.48,.02-.96,.04-1.44h-.04v-3.44s-.05-.27-.15-.44l-1.15-5.46h-.1c-.08-.13-.19-.3-.32-.5-5.2-17.22-20.1-32.16-20.1-32.16v.02c-.3-.49-.57-.99-.88-1.47-.02-.03-.03-.05-.04-.07-5.32-6.87-9.55-14.69-12.43-23.18-2.78-8.2-4.3-17.02-4.3-26.21,0-6.98,.88-13.74,2.53-20.18,0,0,4.45-16.05,8.93-21.41,1.68-2.81,3.52-5.51,5.52-8.07,.36-.66,.91-1.37,1.71-2.16,.05-.05,.11-.11,.16-.17,.01-.02,.03-.03,.04-.04,1.27-1.5,2.58-2.95,3.96-4.34,6.83-8.26,11.08-17.58,13.34-23.53,1.4-3.7,4.93-6.15,8.88-6.15h6.28c-4.91,5.81-11.18,13.9-9.64,15.64,1.88,2.11,16.2-4.23,26.23-15.64h18.85c2.69,5.25,6.43,11.23,13.1,15.64,.71,.47,9.5,6.2,12.02,3.85,2.28-2.13-.21-11.18-6.58-19.48h.23c3.95,0,7.48,2.45,8.88,6.15,1.57,4.14,4.14,9.92,7.83,15.83,1.62,2.58,3.43,5.19,5.51,7.7,1.39,1.41,2.71,2.87,3.99,4.39,.06,.05,.11,.11,.16,.17,.8,.79,1.35,1.5,1.71,2.16,2,2.56,3.84,5.26,5.52,8.07,0,0,7.05,12.48,8.78,20.81,1.74,6.62,2.68,13.58,2.68,20.78,0,9.19-1.52,18.01-4.3,26.21Z"/><path class="cls-3" d="M177.95,74.4c-1.68-2.81-3.52-5.51-5.52-8.07-.36-.66-.91-1.37-1.71-2.16-.06-.05-.11-.11-.16-.17-1.28-1.51-2.61-2.98-3.99-4.39-2.08-2.51-3.89-5.12-5.51-7.7,.6,10.87,4.16,29.03,18.3,51.66,23.49,37.59-32.97,77.19-32.97,77.19l-54.23,18.58s-19.28-22.12-40.93-53.65c-15.62-22.75-2.21-61.78,6.47-81.75-.01,.01-.03,.03-.04,.04-.05,.05-.11,.11-.16,.17-.8,.79-1.35,1.5-1.71,2.16-2,2.56-3.84,5.26-5.52,8.07-4.48,5.36-8.93,21.41-8.93,21.41-1.64,6.44-2.53,13.2-2.53,20.18,0,9.19,1.52,18.01,4.3,26.21,2.88,8.49,7.11,16.31,12.43,23.18,.02,.03,.03,.05,.04,.07,.3,.49,.58,.98,.87,1.47v-.02s14.91,14.94,20.11,32.16c.13,.19,.25,.37,.32,.49h.1l1.15,5.46c.1,.17,.15,.44,.15,.44v3.44h.04c-.03,.48-.04,.96-.04,1.44,0,.24,.04,.48,.04,.72,.47,15.86,16.29,18.87,35.78,18.87s35.82-3.38,35.82-19.58c0-.48-.02-.96-.04-1.44h.04v-2.22c0-.24,.04-1.25,.09-1.54,.02-.04,.04-.06,.06-.11h-.04c.34-1.78,1.43-4.42,2.98-7.51,6.22-12.44,19.65-32.14,19.65-32.14,5.32-6.87,9.55-14.69,12.43-23.18,2.78-8.2,4.3-17.02,4.3-26.21,0-7.2-.94-14.16-2.68-20.78-1.73-8.33-8.78-20.81-8.78-20.81Z"/><path class="cls-4" d="M187.26,96.22c-1.75-8.46-8.86-21.13-8.86-21.13-1.7-2.86-3.55-5.6-5.57-8.2-.36-.67-.92-1.39-1.73-2.19-.06-.06-.11-.11-.16-.17-1.29-1.54-2.63-3.03-4.03-4.45-6.9-8.39-11.19-17.85-13.47-23.89-1.42-3.75-4.97-6.24-8.96-6.24h-.23c6.43,8.43,8.95,17.62,6.65,19.78-2.55,2.39-11.42-3.43-12.13-3.91-6.73-4.48-10.51-10.55-13.22-15.88h-19.03c-10.13,11.58-24.59,18.02-26.48,15.88-1.56-1.76,4.78-9.98,9.73-15.88h-6.34c-3.99,0-7.55,2.49-8.96,6.24-2.28,6.04-6.57,15.5-13.47,23.89-1.4,1.43-2.74,2.92-4.03,4.45-.06,.06-.11,.11-.16,.17-.81,.8-1.37,1.52-1.73,2.19-2.02,2.6-3.87,5.34-5.57,8.2-4.53,5.44-9.02,21.74-9.02,21.74-1.37,5.41-2.18,11.05-2.44,16.85-.05,1.21-.11,2.42-.11,3.64,0,9.34,1.54,18.29,4.34,26.62,2.91,8.62,7.18,16.56,12.55,23.53,.02,.03,.03,.05,.04,.07,.31,.49,.59,1,.88,1.5v-.02s15.05,15.17,20.3,32.66c.13,.2,.25,.37,.33,.5h.1l1.16,5.54c.1,.17,.16,.27,.16,.27v.7s29.06-30.24,72.32-.03c0-.25,.04-.53,.09-.83,.02-.04,.04-.06,.06-.11-.01,0-.03,0-.04,0,.34-1.81,1.45-4.49,3-7.63,6.28-12.64,19.84-32.63,19.84-32.63,5.37-6.97,9.64-14.92,12.55-23.53,2.11-6.26,3.5-12.87,4.06-19.73,.19-2.27,.28-4.57,.28-6.89,0-7.31-.94-14.38-2.7-21.1Z"/><path class="cls-1" d="M149.71,213.4c.09-.76,.19-1.59,.2-2.42,3.92,1.11,7.32,2.8,10.83,4.66-3.46-3.52-7.14-6.51-10.96-9.05v-.34c-42.86-29.74-71.64,.03-71.64,.03-4.05,2.65-7.75,5.75-10.96,9.25,2.25-1.06,4.6-2.27,7.02-3.29,1.5-.63,2.82-1.1,3.95-1.43,.01,.18,.03,.36,.03,.54,.02,.67,.11,1.28,.18,1.9-.5,.48-1.02,.95-1.48,1.48-2.61,2.95-3.25,6.39-1.98,10.14,1.96,5.82,5.8,10.04,11.09,13.02,.09,.05,.22,.02,.38,.03-1.37-4.31-2.78-8.58-.91-13.07,.3,.19,.59,.39,.9,.57,1.57,5.45,5.35,9.04,10.37,11.57,3.85,1.94,7.99,2.93,12.24,3.48,7.91,1.01,15.48-.22,22.62-3.75,4.67-2.31,8.19-5.8,9.79-10.93,.04-.13,.08-.27,.12-.4,.3-.17,.56-.36,.85-.54,1.86,4.58,.43,8.84-.95,13.23,.43-.21,.7-.31,.94-.45,4.54-2.69,7.96-6.39,10.03-11.26,.84-1.98,1.36-4.04,1.07-6.22-.37-2.8-1.77-4.88-3.7-6.76Z"/><path class="cls-1" d="M51.12,145.7c21.65,31.53,40.93,53.65,40.93,53.65l54.23-18.58s52.63-43.62,36.29-84.82c-9.5-23.94-18.06-33.72-23.8-44.02-3.7-5.91-5.55-10.09-7.12-14.23-1.4-3.7-3.46-7.76-7.41-7.76h-.23c6.37,8.3,8.87,17.36,6.58,19.48-2.52,2.35-11.31-3.38-12.02-3.85-6.67-4.41-10.41-10.39-13.1-15.64h-18.85c-10.03,11.41-24.36,17.75-26.23,15.64-1.54-1.73,4.73-9.83,9.64-15.64h-6.28c-3.95,0-7.48,2.45-8.88,6.15-2.26,5.95-6.51,15.27-13.34,23.53-1.37,1.39-2.69,2.84-3.96,4.34-8.68,19.97-22.09,59-6.47,81.75Z"/><path class="cls-5" d="M77.43,206.77c18.77-22.2,53.53-18.52,73.42,.44-24.09-12.64-49.97-16.62-73.42-.44h0Z"/><g><path class="cls-5" d="M99.62,65.14c-15.39-3.54-23.15-4.4-22.33-4.34-8.56-.67-14.85,3.89-19.5,12.34,6.46-4.82,12.84-5.79,19.47-4.14,6.26,1.55,12.46,3.42,18.53,5.6,3.81,1.37,5.35-.63,6.58-3.37,1.3-2.89,.35-5.37-2.74-6.08Z"/><path class="cls-5" d="M154.3,56.35c-9.45,.62-17.71,4.69-25.51,9.73-2.5,1.62-2.8,3.87-1.04,6.35,2.4,3.39,4.24,3.68,8.15,1.26,10.32-6.36,20.3-13.85,33.81-10.3-4.06-4.91-9.18-7.46-15.4-7.05Z"/></g><g><path class="cls-5" d="M105.37,78.28c-1.1-1.66-2.73-2.61-4.46-2.61H46.82c-1.73,0-3.36,.95-4.46,2.61-1.49,2.25-1.78,5.26-.76,7.88l1.02,2.61,.6,1.53,3.09,7.87,1.91,4.86,2.92,7.45,1.28,3.27c.97,2.47,3.02,4.07,5.22,4.07h32.45c2.2,0,4.25-1.6,5.22-4.07l9.59-24.46,.12-.31,.24-.23c.15-.15,.36-.35,.62-.58l-.15,.08,.74-3.46c.5-2.34,.1-4.72-1.1-6.52Z"/><path class="cls-5" d="M185.12,78.28c-1.1-1.66-2.73-2.61-4.46-2.61h-54.08c-1.73,0-3.36,.95-4.46,2.61-1.14,1.72-1.58,3.97-1.19,6.18l.57,3.28-.49-.28c.19,.17,.36,.38,.55,.57,.26,.26,.51,.51,.76,.8l.17,.2,.1,.25,3,7.67,1.91,4.86,2.92,7.45,1.76,4.49c.97,2.47,3.02,4.07,5.22,4.07h32.45c2.2,0,4.25-1.6,5.22-4.07l9.42-24.03,1.4-3.56c1.02-2.62,.73-5.63-.76-7.88Z"/><path class="cls-5" d="M186.4,77.4c-1.4-2.1-3.49-3.3-5.74-3.3h-54.08c-2.25,0-4.35,1.2-5.74,3.3-1.41,2.11-1.88,4.79-1.43,7.34-1.54-.88-3.16-1.36-4.87-1.41-.13,0-.26,0-.39,0-2.37,0-4.48,.84-6.16,1.82,.58-2.68,.15-5.52-1.33-7.74-1.4-2.1-3.49-3.3-5.74-3.3H46.82c-2.25,0-4.35,1.2-5.74,3.3-1.78,2.67-2.13,6.25-.91,9.35l1.62,4.14,9.2,23.46c1.21,3.08,3.82,5.07,6.66,5.07h32.45c2.84,0,5.45-1.99,6.66-5.07l9.59-24.46c.77-.76,4-3.72,7.93-3.72,.07,0,.14,0,.22,0,2.4,.07,4.64,1.33,6.67,3.71l9.59,24.47c1.21,3.08,3.82,5.07,6.66,5.07h32.45c2.84,0,5.45-1.99,6.66-5.07l9.42-24.03,1.4-3.56c1.21-3.09,.86-6.68-.92-9.35Zm-65.48,7.07c-.38-2.21,.05-4.47,1.19-6.18,1.1-1.66,2.73-2.61,4.46-2.61h54.08c1.73,0,3.36,.95,4.46,2.61,1.49,2.24,1.78,5.26,.76,7.88l-1.4,3.56-9.42,24.03c-.97,2.47-3.02,4.07-5.22,4.07h-32.45c-2.2,0-4.25-1.6-5.22-4.07l-9.59-24.47-.1-.25-.17-.2m-17.3,.15l-.12,.31-9.59,24.46c-.97,2.47-3.02,4.07-5.22,4.07H57.64c-2.2,0-4.25-1.6-5.22-4.07l-9.2-23.46-1.62-4.14c-1.02-2.62-.73-5.64,.76-7.88,1.1-1.66,2.73-2.61,4.46-2.61h54.08c1.73,0,3.36,.95,4.46,2.61,1.2,1.81,1.6,4.18,1.1,6.52l-1.1,3.49"/></g><path class="cls-3" d="M114.16,183.61h.02s0-.04,0-.06c0,.02,0,.04,0,.06Z"/><path class="cls-1" d="M101.82,182.95c-5.62-.45-11.24-1.17-16.84-2.25-1.19,3.41-1.25,3.55,1.58,4.77,4.87,2.09,9.83,3.99,14.75,5.96-.01,.11-.03,.21-.04,.32-5.69-1.46-11.37-2.92-17.49-4.5,.73,1,1.22,1.94,1.94,2.62,7.11,6.7,15.58,10.31,25.3,10.88,12.08,.71,22.66-2.9,31.45-11.33,.58-.56,.84-1.44,1.25-2.17-5.87,2.02-11.48,3.57-16.69,3.95,4.33-1.76,9.26-3.65,14.1-5.76,2.81-1.22,2.75-1.37,1.58-4.8-5.6,1.11-11.2,1.84-16.8,2.3-9.8-5.66-11.96-12.6-11.96-12.6,0,0-2.24,6.93-12.14,12.6Z"/><path class="cls-5" d="M156.01,173.39c-1.3-1.14-2.82-1.33-4.79-.9,1,.87,1.63,1.41,2.67,2.3-3.88,1.1-7.75,2.03-11.61,2.79-3.95,.78-7.88,1.4-11.81,1.86-1.82,.21-3.66-.24-5.18-1.27-.27-.18-.55-.39-.83-.59-3.25-2.32-7.26-5.83-9.3-10.12-.74-1.57-.81-3.38-.33-5.04,.51-1.75,1.2-3.76,2.07-5.74,1.98-4.5,4.89-8.92,8.73-10.15,5.85-1.88,9.56-4.65,11.07-5.95,.48-.41,.89-.86,1.25-1.38l5.93-8.35h-.02c.08-.21,.14-.42,.14-.64,0-.93-.82-1.69-1.83-1.69-.63,0-1.15,.31-1.48,.75l-3.01,3.8h-.03c-.32,.36-.79,.6-1.33,.6-.77,0-1.4-.47-1.63-1.1l-.11-.02-1.08-1.2-.03,.03c-.34-.63-1.25-1.08-2.34-1.08-.47,0-.89,.11-1.27,.25h0s-9.91,2.86-14.99,2.86c-.33,0-.67-.01-1.03-.04-.36,.02-.7,.04-1.03,.04-5.08,0-14.99-2.86-14.99-2.86h0c-.38-.14-.79-.25-1.27-.25-1.1,0-2,.46-2.34,1.08l-.03-.03-1.08,1.2-.11,.02c-.23,.64-.87,1.1-1.63,1.1-.54,0-1.01-.24-1.33-.6h-.02l-3.01-3.8c-.33-.44-.86-.75-1.48-.75-1.01,0-1.83,.76-1.83,1.69,0,.22,.05,.43,.14,.63h-.02l5.93,8.36c.36,.51,.77,.97,1.25,1.38,1.51,1.29,5.22,4.07,11.07,5.95,3.84,1.23,6.75,5.65,8.73,10.15,.87,1.98,1.56,3.99,2.07,5.74,.48,1.67,.41,3.47-.33,5.04-2.04,4.3-6.05,7.8-9.3,10.12-.28,.2-.56,.4-.82,.58-1.52,1.04-3.35,1.49-5.18,1.27-3.92-.46-7.85-1.08-11.78-1.86h.12c-3.84-.76-7.69-1.68-11.55-2.78,1.04-.96,1.65-1.53,2.55-2.37-2.2-.37-3.96-.2-5.08,1.47-1.19,1.77-.56,3.59,.37,5.94,.43-1.29,.65-1.96,.9-2.73,2.49,4.64,5.32,8.72,8.49,12.24v.14c8.24,9.08,18.89,14.2,32.74,14.19,14.51-.02,25.51-5.7,33.81-15.55,2.73-3.24,5.17-6.93,7.35-11.03,.3,.83,.55,1.53,.88,2.42,1.33-2.82,1.35-4.99,.04-6.14Zm-13.54,16.04c-8.8,8.43-19.37,12.04-31.45,11.33-9.72-.57-18.2-4.19-25.3-10.88-.72-.68-1.21-1.61-1.94-2.62,6.12,1.57,11.81,3.04,17.49,4.5,.01-.11,.03-.21,.04-.32-4.92-1.98-9.88-3.87-14.75-5.96-2.83-1.22-2.77-1.36-1.58-4.77,5.6,1.07,11.22,1.8,16.84,2.25,9.9-5.67,12.14-12.6,12.14-12.6,0,0,2.16,6.94,11.96,12.6,5.6-.45,11.2-1.19,16.8-2.3,1.16,3.43,1.23,3.58-1.58,4.8-4.84,2.1-9.76,4-14.1,5.76,5.21-.39,10.82-1.93,16.69-3.95-.41,.73-.67,1.61-1.25,2.17Z"/><g><g><path class="cls-5" d="M131.29,154.24c2.7,0,2.7-4.19,0-4.19s-2.7,4.19,0,4.19h0Z"/><path class="cls-5" d="M139.48,151.22c2.7,0,2.7-4.19,0-4.19s-2.7,4.19,0,4.19h0Z"/><path class="cls-5" d="M148.02,150.86c2.7,0,2.7-4.19,0-4.19s-2.7,4.19,0,4.19h0Z"/><path class="cls-5" d="M135.38,162.79c2.7,0,2.7-4.19,0-4.19s-2.7,4.19,0,4.19h0Z"/><path class="cls-5" d="M144.64,159.4c2.7,0,2.7-4.19,0-4.19s-2.7,4.19,0,4.19h0Z"/><path class="cls-5" d="M154.25,160.29c2.7,0,2.7-4.19,0-4.19s-2.7,4.19,0,4.19h0Z"/><path class="cls-5" d="M146.42,168.66c2.7,0,2.7-4.19,0-4.19s-2.7,4.19,0,4.19h0Z"/><path class="cls-5" d="M135.21,173.11c2.7,0,2.7-4.19,0-4.19s-2.7,4.19,0,4.19h0Z"/><path class="cls-5" d="M126.84,166.17c2.7,0,2.7-4.19,0-4.19s-2.7,4.19,0,4.19h0Z"/></g><g><path class="cls-5" d="M96.47,154.69c2.7,0,2.7-4.19,0-4.19s-2.7,4.19,0,4.19h0Z"/><path class="cls-5" d="M88.29,151.66c2.7,0,2.7-4.19,0-4.19s-2.7,4.19,0,4.19h0Z"/><path class="cls-5" d="M79.74,151.31c2.7,0,2.7-4.19,0-4.19s-2.7,4.19,0,4.19h0Z"/><path class="cls-5" d="M92.38,163.23c2.7,0,2.7-4.19,0-4.19s-2.7,4.19,0,4.19h0Z"/><path class="cls-5" d="M83.13,159.85c2.7,0,2.7-4.19,0-4.19s-2.7,4.19,0,4.19h0Z"/><path class="cls-5" d="M73.52,160.74c2.7,0,2.7-4.19,0-4.19s-2.7,4.19,0,4.19h0Z"/><path class="cls-5" d="M81.35,169.1c2.7,0,2.7-4.19,0-4.19s-2.7,4.19,0,4.19h0Z"/><path class="cls-5" d="M92.56,173.55c2.7,0,2.7-4.19,0-4.19s-2.7,4.19,0,4.19h0Z"/><path class="cls-5" d="M100.92,166.61c2.7,0,2.7-4.19,0-4.19s-2.7,4.19,0,4.19h0Z"/></g></g></g></svg>