<?xml version="1.0" encoding="UTF-8"?><svg xmlns="http://www.w3.org/2000/svg" viewBox="0 0 505.14 683"><defs><style>.cls-1{fill:#fff;}.cls-2{fill:none;}.cls-3{stroke:#000;stroke-miterlimit:10;}.cls-3,.cls-4{fill:#7696a8;}</style></defs><g id="Layer_2"><path class="cls-2" d="M199.03,275c-27.28,36.58-53.55,33.07-59,53-3.31,12.1,1.04,29.15,24.81,53.97-25.45-11.88-44.68-32.52-58.6-53-4.58-6.76-8.6-13.51-12.07-19.91-1.84-3.94-3.52-8.08-5.02-12.41-5.48-15.82-8.62-34.1-8.62-53.59,0-17.45,2.51-33.95,6.98-48.57,6.05-19.79,15.7-36.15,27.52-46.8,.11-.14,.24-.28,.36-.42,.83-1.46,2.13-3.04,4.02-4.76,.11-.13,.25-.26,.36-.37,3.04-3.33,6.12-6.56,9.37-9.67,16.05-18.18,26.02-38.68,31.33-51.78,3.16-7.8,10.9-13.08,19.73-13.48,.19-.02,.36-.03,.54-.03,.18-.01,.38-.01,.55-.01h1.33c.51-.06,1.03-.11,1.55-.13,.17-.02,.34-.03,.51-.03,.17-.01,.35-.01,.52-.01h12.52c-8.61,15-13.66,31.26-8.69,46,7.64,22.65,31.87,20.64,44,45,21.33,42.81-25.38,105.44-34,117Z"/></g><g id="mane"><path class="cls-4" d="M478.51,145.06c-14.97-12.02-33.59-26.98-42.89-40.89-5.35-7.98-7.13-14.69-5.43-20.49,.86-2.9,2.58-5.44,5.26-7.76,2.32-2.01,5.02-3.57,7.4-4.95,3.94-2.28,7.34-4.25,7.19-7.41-.21-3.64-4.96-6.67-14.98-9.54-10.95-3.11-28.47-5.95-52.08-8.47,.41-1.78,1.83-3.43,4.4-5.1,1.5-.97,3.36-1.94,5.87-3.07,.61-.27,1.21-.54,1.8-.81,5.08-2.28,9.47-4.25,9.37-7.48-.02-1.39-.93-2.88-2.76-4.56-10.48-9.59-50.94-23.53-90.52-23.53-23.23,0-42.92,4.55-58.55,13.52-15.64-8.97-35.33-13.52-58.56-13.52-39.59,0-80.06,13.94-90.53,23.56-1.81,1.68-2.71,3.17-2.76,4.55-.09,3.23,4.3,5.2,9.39,7.48,2.65,1.19,5.39,2.42,7.64,3.88,2.6,1.69,4.03,3.34,4.44,5.1-23.66,2.52-41.18,5.37-52.08,8.47-10.05,2.87-14.81,5.91-14.97,9.54-.17,3.16,3.24,5.13,7.19,7.41,2.38,1.38,5.08,2.94,7.4,4.95,2.67,2.34,4.38,4.87,5.23,7.76,1.7,5.79-.07,12.49-5.4,20.49-9.31,13.89-27.93,28.85-42.9,40.87-6.37,5.11-12.38,9.94-16.88,14.04C2.5,165.76-.02,169.79,1.39,172.56c.3,.59,.98,1.3,2.53,1.3,1.44,0,3.51-.58,6.92-1.95,1.59-.63,3.35-1.39,5.22-2.19,8.34-3.58,18.72-8.04,27.58-8.04,3.6,0,6.67,.76,9.19,2.32C16.54,230.63,3.65,266.69,13.42,274.25c1.58,1.22,3.86,1.84,6.77,1.84,4.44,0,10.12-1.46,16.21-4.13-7.65,14.97-14.72,34.81-18.68,52.56-2.28,10.19-3.43,19.26-3.3,26.24,.16,8.34,2.04,13.77,5.6,16.14,1.5,1.02,3.38,1.53,5.56,1.53,7.51,0,18.79-6.27,29.13-16.12,.25,12.53-4.47,31.11-8.65,47.61-5.86,23.1-9.17,37.38-3.79,39.91,.48,.22,1,.34,1.56,.34,4.44,0,10.58-7.54,17.68-16.26,3.18-3.9,6.47-7.94,9.63-11.29,4.91-5.22,8.59-7.76,11.25-7.76,.42,0,.8,.06,1.17,.18,9.39,3.17,4.34,36.41-.54,68.56-.72,4.72-1.45,9.5-2.14,14.25-2.38,16.26-4.78,34.77-4.5,48.89,.25,11.91,2.28,18.11,6.38,19.49,.55,.19,1.14,.29,1.74,.29,5.43,0,12.03-7.68,20.28-19.22,1.72-2.41,3.46-4.91,5.2-7.41,8.64-12.43,17.58-25.28,23.26-25.28,.35,0,.68,.06,.99,.16,2.93,1,6.07,7.35,4.38,31.88-1.38,20.11-5.4,46.25-9.3,71.53-.8,5.22-1.6,10.37-2.35,15.36-6.44,42.78-6.98,56.96-2.19,58.36,.23,.07,.48,.1,.73,.1,5.82,0,15.79-20.46,31.51-54.15l1.74-3.74c9.5-20.3,23.85-50.99,29.12-50.99,.08,0,.16,.01,.23,.03,2.68,.83,1.34,14.46,.37,24.41-.97,9.85-1.96,20.04-.91,26.29,.58,3.51,1.77,5.57,3.64,6.28,.47,.18,.97,.27,1.49,.27,2.44,0,5.52-1.97,9.43-6.02,14.86-15.46,38.6-58.59,50.48-82,11.92,23.46,35.72,66.66,50.47,82,3.89,4.05,6.98,6.02,9.42,6.02,.52,0,1.02-.09,1.48-.27,1.88-.71,3.08-2.77,3.66-6.28,1.05-6.27,.05-16.46-.91-26.31-.97-9.94-2.3-23.56,.38-24.39,.07-.02,.14-.03,.22-.03,5.26,0,19.61,30.69,29.11,50.99l1.7,3.63c15.76,33.76,25.75,54.26,31.57,54.26h.03c.25-.01,.49-.04,.73-.11,4.78-1.41,4.25-15.59-2.21-58.36-.74-4.89-1.52-9.93-2.31-15.04-3.92-25.39-7.97-51.65-9.35-71.85-1.34-19.7,.14-30.42,4.39-31.88,.31-.11,.64-.16,.99-.16,5.66,0,14.61,12.85,23.26,25.28,1.74,2.5,3.48,5,5.2,7.41,8.25,11.54,14.85,19.22,20.28,19.22,.61,0,1.19-.1,1.74-.29,4.12-1.39,6.14-7.59,6.36-19.5,.28-14.03-1.99-31.78-4.49-48.88-.69-4.75-1.41-9.52-2.13-14.25-4.87-32.15-9.91-65.39-.52-68.56,.36-.12,.74-.18,1.15-.18,2.65,0,6.33,2.54,11.26,7.76,3.13,3.33,6.39,7.34,9.55,11.22,7.13,8.76,13.29,16.33,17.75,16.33,.55,0,1.08-.11,1.56-.34,5.38-2.52,2.06-16.8-3.8-39.89-4.6-18.1-9.77-38.49-8.47-50.87,10.93,11.47,24.04,19.35,32.38,19.35,2.18,0,4.06-.52,5.57-1.53,3.2-2.13,5.04-6.76,5.49-13.77,.37-5.87-.25-13.27-1.84-21.98-5.05-27.54-19.54-64.82-32.6-78.18,5.14,.98,10.28,1.49,15.04,1.49,11.09,0,19.44-2.67,22.9-7.33,8.08-10.94-6.66-38.18-45.08-83.27,2.45-1.45,5.47-2.19,9-2.19,8.87,0,19.26,4.46,27.6,8.05,2.69,1.16,5.1,2.19,7.14,2.94,2.05,.74,3.73,1.2,4.97,1.2,1.55,0,2.23-.71,2.53-1.31,2.46-4.87-7.48-13.19-25.26-27.47Zm-61.64,135.79l-.02,.1c-1.16,9.75-3.1,19.4-5.77,28.69-.74,2.59-1.55,5.2-2.42,7.77-6.29,18.7-15.5,36.03-27.4,51.54-.08,.11-7.26,10.75-16.09,24.66-12.34,19.47-21.54,35.26-27.31,46.88-.06,.1-.1,.19-.15,.29l-.29,.59c-1.02,2.08-1.86,3.86-2.56,5.46l-1.13,2.58,2.51-1.29c9.23-4.76,18.02-10.36,26.19-16.67-1.87,2.75-4.4,5.65-7.51,8.55-3.38,3.16-7.37,6.28-11.85,9.27l-2.98,1.96,1.25,.84c3.82,2.55,7.34,5.27,10.46,8.08,4.86,4.39,8.44,8.76,10.56,12.84-.54-.57-1.13-1.17-1.77-1.8l-.1-.11h-.02c-3.94-3.81-8.8-7.57-14.45-11.18l-2.59-1.66,.1,.25c-.05-.06-5.81-5.92-5.81-5.92l3.98,6.79v.03l.16,.25c.06,.08,.11,.16,.17,.27l.1,.17c.19,.32,.37,.63,.55,.94,.76,1.33,1.43,2.62,2.05,3.98,.31,.66,.6,1.33,.89,2.02,.29,.68,.55,1.38,.81,2.07,.29,.77,.55,1.57,.81,2.37,.12,.38,.25,.77,.36,1.2,.11,.4,.22,.8,.33,1.21,.08,.33,.17,.66,.26,1.06,.07,.27,.13,.56,.2,.88,.07,.3,.13,.58,.19,.93,.05,.25,.1,.5,.15,.8,.07,.35,.13,.71,.19,1.09,.06,.33,.12,.67,.16,1.05,.05,.34,.1,.7,.14,1.04,.28,2.43,.38,4.85,.29,7.23-.01,.48-.04,.96-.07,1.43-.43,6.68-2.22,13.09-5.29,18.99,1.43-4.17,2.3-8.51,2.58-13,.16-2.47,.14-4.98-.07-7.48-.38-4.43-1.35-8.87-2.89-13.19-.84-2.37-1.87-4.73-3.06-7.02l-1.83,.81c1.05,2.86,1.82,5.75,2.3,8.61,.45,2.54,.67,5.15,.67,7.74,0,.99-.04,2.03-.11,3.08-.98,14.56-8.91,26.8-24.89,38.31,2.61-6.66,3.86-11.82,3.86-19.49,0-2.35-.13-4.7-.37-6.98-.23-2.15-.56-4.29-.98-6.35l-.76-3.72-1.17,3.62c-.92,2.83-2.06,5.65-3.4,8.39-11.34,23.08-36.8,26.19-60.2,26.19v-.08h-1.9c-23.33-.43-48.65-4.03-59.52-27.47-1.05-2.26-1.99-4.64-2.79-7.1l-1.17-3.59-.76,3.7c-.35,1.72-.64,3.49-.85,5.25-.33,2.64-.49,5.36-.49,8.08,0,7.67,1.25,12.83,3.86,19.49-15.97-11.51-23.91-23.75-24.89-38.31-.07-1.05-.11-2.09-.11-3.08,0-3.83,.49-7.69,1.46-11.49,.39-1.57,.9-3.21,1.51-4.86l-1.83-.81c-.67,1.29-1.28,2.6-1.82,3.87-2.28,5.32-3.67,10.82-4.13,16.35-.21,2.48-.24,5-.08,7.48,.28,4.49,1.14,8.83,2.58,13-3.07-5.9-4.86-12.31-5.29-18.98-.03-.48-.05-.96-.07-1.44-.04-1.17-.04-2.3,.01-3.41,0-.29,.01-.58,.04-.93v-.1c.01-.32,.03-.65,.06-.98,.02-.26,.04-.5,.07-.77,.07-.71,.15-1.43,.26-2.16,.05-.37,.11-.75,.17-1.12,.1-.59,.21-1.18,.33-1.78,.13-.71,.3-1.41,.48-2.13,.12-.51,.25-1.01,.39-1.51,.12-.43,.24-.85,.38-1.29,.15-.5,.32-1,.49-1.53,.12-.33,.24-.66,.38-1.04,.09-.26,.18-.52,.29-.79,.12-.3,.23-.6,.36-.91,.2-.48,.39-.96,.61-1.44l.36-.8c.14-.32,.29-.65,.47-1,.12-.25,.23-.48,.39-.79,.28-.57,.58-1.13,.9-1.71,.15-.28,.31-.57,.48-.84l2.22-3.58-3.59,2.2c-3.68,2.26-7.12,4.62-10.13,6.96-2.3,1.44-4.51,2.99-6.59,4.6,0,0-.09,.08-.11,.09,1.89-2.91,4.55-5.98,7.86-9.08,3.38-3.16,7.37-6.28,11.85-9.27l2.98-1.96-1.25-.84c-3.82-2.55-7.34-5.27-10.46-8.08-4.79-4.33-8.41-8.74-10.55-12.83,.53,.56,1.12,1.15,1.76,1.79l.12,.12,.04,.02c3.15,3.04,6.87,6.04,11.16,8.99l.18,.11c2.66,1.84,5.53,3.63,8.51,5.33l6.42,3.65-5.04-5.05c-11.5-37.84-43.92-71.05-44.68-71.83-.23-.39-.46-.79-.69-1.19-.37-.63-.73-1.27-1.12-1.9l-.08-.16-.06-.08c-11.89-15.46-21.11-32.78-27.41-51.49-2.3-6.86-4.22-13.91-5.7-20.97v-.06l-.02-.06c-5.6-16.17-8.56-34.59-8.56-53.26,0-16.99,2.34-33.23,6.94-48.28,6.02-19.69,15.44-35.72,27.23-46.35l.06-.06,.05-.07c.06-.08,.13-.15,.2-.23l.2-.23,.05-.08c.8-1.43,2.09-2.95,3.82-4.52l.05-.04,.04-.05,.22-.22,.12-.12c3.45-3.78,6.41-6.84,9.38-9.68,15.9-18.01,25.91-38.26,31.51-52.07,3.01-7.43,10.41-12.47,18.91-12.86,.15-.03,.29-.03,.49-.03,.14-.02,.3-.02,.44-.02h1.5c.48-.06,.98-.11,1.55-.13,.13-.02,.26-.02,.45-.02h12.19l-.21,.24h38.83l.03-.07h.17l.52-.05,.1-.12h40.64l.15,.24h29.43l2.41,.04-.11-.11h12.13l-.05-.05c.19,.01,.63,.06,.63,.06h.22c.14,0,.28,.01,.49,.03,8.44,.39,15.84,5.43,18.85,12.86,5.6,13.82,15.62,34.06,31.57,52.13,2.91,2.79,5.88,5.84,9.36,9.66l.09,.09c.08,.07,.16,.14,.22,.22l.04,.05,.05,.04c1.72,1.58,3.01,3.1,3.82,4.52l.05,.08,.2,.23c.07,.08,.14,.15,.2,.23l.05,.07,.06,.06c11.79,10.63,21.21,26.66,27.23,46.35,4.61,15.06,6.94,31.3,6.94,48.28,0,13-1.4,25.71-4.16,37.79Z"/><path class="cls-1" d="M421.03,243.06c0,13-1.4,25.71-4.16,37.79l-.02,.1c-1.16,9.75-3.1,19.4-5.77,28.69-.74,2.59-1.55,5.2-2.42,7.77-6.29,18.7-15.5,36.03-27.4,51.54-.08,.11-7.26,10.75-16.09,24.66-12.34,19.47-21.54,35.26-27.31,46.88-.06,.1-.1,.19-.15,.29l-.29,.59c-1.02,2.08-1.86,3.86-2.56,5.46l-1.13,2.58,2.51-1.29c9.23-4.76,18.02-10.36,26.19-16.67-1.87,2.75-4.4,5.65-7.51,8.55-3.38,3.16-7.37,6.28-11.85,9.27l-2.98,1.96,1.25,.84c3.82,2.55,7.34,5.27,10.46,8.08,4.86,4.39,8.44,8.76,10.56,12.84-.54-.57-1.13-1.17-1.77-1.8l-.1-.11h-.02c-3.94-3.81-8.8-7.57-14.45-11.18l-2.59-1.66,.1,.25c-.05-.06-5.81-5.92-5.81-5.92l3.98,6.79v.03l.16,.25c.06,.08,.11,.16,.17,.27l.1,.17c.19,.32,.37,.63,.55,.94,.76,1.33,1.43,2.62,2.05,3.98,.31,.66,.6,1.33,.89,2.02,.29,.68,.55,1.38,.81,2.07,.29,.77,.55,1.57,.81,2.37,.12,.38,.25,.77,.36,1.2,.11,.4,.22,.8,.33,1.21,.08,.33,.17,.66,.26,1.06,.07,.27,.13,.56,.2,.88,.07,.3,.13,.58,.19,.93,.05,.25,.1,.5,.15,.8,.07,.35,.13,.71,.19,1.09,.06,.33,.12,.67,.16,1.05,.05,.34,.1,.7,.14,1.04,.28,2.43,.38,4.85,.29,7.23-.01,.48-.04,.96-.07,1.43-.43,6.68-2.22,13.09-5.29,18.99,1.43-4.17,2.3-8.51,2.58-13,.16-2.47,.14-4.98-.07-7.48-.38-4.43-1.35-8.87-2.89-13.19-.84-2.37-1.87-4.73-3.06-7.02l-1.83,.81c1.05,2.86,1.82,5.75,2.3,8.61,.45,2.54,.67,5.15,.67,7.74,0,.99-.04,2.03-.11,3.08-.98,14.56-8.91,26.8-24.89,38.31,2.61-6.66,3.86-11.82,3.86-19.49,0-2.35-.13-4.7-.37-6.98-.23-2.15-.56-4.29-.98-6.35l-.76-3.72-1.17,3.62c-.92,2.83-2.06,5.65-3.4,8.39-11.34,23.08-36.8,26.19-60.2,26.19v-.08h-1.9c-23.33-.43-48.65-4.03-59.52-27.47-1.05-2.26-1.99-4.64-2.79-7.1l-1.17-3.59-.76,3.7c-.35,1.72-.64,3.49-.85,5.25-.33,2.64-.49,5.36-.49,8.08,0,7.67,1.25,12.83,3.86,19.49-15.97-11.51-23.91-23.75-24.89-38.31-.07-1.05-.11-2.09-.11-3.08,0-3.83,.49-7.69,1.46-11.49,.39-1.57,.9-3.21,1.51-4.86l-1.83-.81c-.67,1.29-1.28,2.6-1.82,3.87-2.28,5.32-3.67,10.82-4.13,16.35-.21,2.48-.24,5-.08,7.48,.28,4.49,1.14,8.83,2.58,13-3.07-5.9-4.86-12.31-5.29-18.98-.03-.48-.05-.96-.07-1.44-.04-1.17-.04-2.3,.01-3.41,0-.29,.01-.58,.04-.93v-.1c.01-.32,.03-.65,.06-.98,.02-.26,.04-.5,.07-.77,.07-.71,.15-1.43,.26-2.16,.05-.37,.11-.75,.17-1.12,.1-.59,.21-1.18,.33-1.78,.13-.71,.3-1.41,.48-2.13,.12-.51,.25-1.01,.39-1.51,.12-.43,.24-.85,.38-1.29,.15-.5,.32-1,.49-1.53,.12-.33,.24-.66,.38-1.04,.09-.26,.18-.52,.29-.79,.12-.3,.23-.6,.36-.91,.2-.48,.39-.96,.61-1.44l.36-.8c.14-.32,.29-.65,.47-1,.12-.25,.23-.48,.39-.79,.28-.57,.58-1.13,.9-1.71,.15-.28,.31-.57,.48-.84l2.22-3.58-3.59,2.2c-3.68,2.26-7.12,4.62-10.13,6.96-2.3,1.44-4.51,2.99-6.59,4.6,0,0-.09,.08-.11,.09,1.89-2.91,4.55-5.98,7.86-9.08,3.38-3.16,7.37-6.28,11.85-9.27l2.98-1.96-1.25-.84c-3.82-2.55-7.34-5.27-10.46-8.08-4.79-4.33-8.41-8.74-10.55-12.83,.53,.56,1.12,1.15,1.76,1.79l.12,.12,.04,.02c3.15,3.04,6.87,6.04,11.16,8.99l.18,.11c2.66,1.84,5.53,3.63,8.51,5.33l6.42,3.65-5.04-5.05c-11.5-37.84-43.92-71.05-44.68-71.83-.23-.39-.46-.79-.69-1.19-.37-.63-.73-1.27-1.12-1.9l-.08-.16-.06-.08c-11.89-15.46-21.11-32.78-27.41-51.49-2.3-6.86-4.22-13.91-5.7-20.97v-.06l-.02-.06c-5.6-16.17-8.56-34.59-8.56-53.26,0-16.99,2.34-33.23,6.94-48.28,6.02-19.69,15.44-35.72,27.23-46.35l.06-.06,.05-.07c.06-.08,.13-.15,.2-.23l.2-.23,.05-.08c.8-1.43,2.09-2.95,3.82-4.52l.05-.04,.04-.05,.22-.22,.12-.12c3.45-3.78,6.41-6.84,9.38-9.68,15.9-18.01,25.91-38.26,31.51-52.07,3.01-7.43,10.41-12.47,18.91-12.86,.15-.03,.29-.03,.49-.03,.14-.02,.3-.02,.44-.02h1.5c.48-.06,.98-.11,1.55-.13,.13-.02,.26-.02,.45-.02h12.19l-.21,.24h38.83l.03-.07h.17l.52-.05,.1-.12h40.64l.15,.24h29.43l2.41,.04-.11-.11h12.13l-.05-.05c.19,.01,.63,.06,.63,.06h.22c.14,0,.28,.01,.49,.03,8.44,.39,15.84,5.43,18.85,12.86,5.6,13.82,15.62,34.06,31.57,52.13,2.91,2.79,5.88,5.84,9.36,9.66l.09,.09c.08,.07,.16,.14,.22,.22l.04,.05,.05,.04c1.72,1.58,3.01,3.1,3.82,4.52l.05,.08,.2,.23c.07,.08,.14,.15,.2,.23l.05,.07,.06,.06c11.79,10.63,21.21,26.66,27.23,46.35,4.61,15.06,6.94,31.3,6.94,48.28Z"/><path d="M171.89,445.15c-11.12-36.3-42.66-70.13-45.81-73.41-.09-.09-.16-.19-.23-.3-.16-.27-.31-.54-.47-.81l-.39-.67c-.26-.45-.53-.91-.76-1.28l-.24-.4c-11.82-15.37-20.99-32.6-27.25-51.2-2.29-6.83-4.19-13.82-5.66-20.79l-.07-.31c-5.56-16.07-8.5-34.37-8.5-52.93,0-16.87,2.32-33.02,6.9-47.99,5.97-19.52,15.28-35.39,26.94-45.9l.24-.27s.05-.06,.08-.09l.28-.32,.17-.25c.74-1.33,1.96-2.76,3.62-4.27l.49-.5c3.44-3.77,6.39-6.82,9.34-9.64,.03-.03,.07-.07,.1-.1,15.96-18.09,26.01-38.42,31.64-52.3,2.86-7.06,9.94-11.87,18.03-12.24l.15-.02c.09-.02,.18-.01,.3-.01h.14c.1-.02,.2-.02,.3-.02h1.62c.37-.05,.87-.11,1.46-.13h.12c.09-.02,.17-.02,.3-.02h9.99l-.21,.24h40.93c.07,0,.14,0,.21-.01l1.12-.15,.06-.08h39.62l.15,.24h29.97l4.89,.08-.15-.15h10.08c.06,0,.1,0,.1,0h.33c.11,0,.23,.02,.44,.04,8.05,.37,15.11,5.18,17.97,12.24,5.62,13.86,15.67,34.19,31.76,52.42,.03,.04,.06,.07,.1,.1,2.99,2.87,5.94,5.91,9.29,9.6l.14,.14s.06,.05,.14,.14l.15,.15c1.65,1.52,2.88,2.96,3.63,4.28l.69,.84c.04,.05,.09,.1,.15,.15,11.62,10.51,20.91,26.36,26.87,45.83,4.58,14.95,6.9,31.1,6.9,47.99,0,12.92-1.39,25.56-4.14,37.6l-.03,.17c-1.15,9.7-3.08,19.3-5.74,28.53-.75,2.62-1.56,5.22-2.41,7.73-6.25,18.6-15.42,35.84-27.26,51.27-.04,.05-7.23,10.7-16.13,24.71-12.37,19.52-21.58,35.33-27.32,46.9-.06,.1-.1,.19-.19,.36l-.29,.59c-.43,.89-.82,1.68-1.17,2.43-.02,.27-.13,.52-.33,.7-.04,.09-.08,.16-.12,.25,.23,.07,.47,.14,.7,.2h.01c.73,.19,1.48-.18,1.81-.86,.27-.57,.57-1.18,.89-1.83l.29-.58,.04-.09s.04-.09,.11-.21c5.75-11.58,14.92-27.32,27.26-46.79,8.68-13.67,15.57-23.89,16.02-24.55,.02-.02,.03-.05,.05-.07,11.95-15.58,21.21-33,27.53-51.79,.86-2.54,1.68-5.17,2.43-7.81,2.68-9.34,4.64-19.04,5.79-28.77v-.07c2.79-12.16,4.2-24.95,4.2-38.01,0-17.09-2.35-33.43-6.98-48.57-6.07-19.86-15.59-36.05-27.49-46.78-.06-.08-.12-.15-.25-.29l-.15-.17c-.86-1.49-2.2-3.09-4-4.74h0c-.11-.15-.23-.24-.27-.28l-.06-.06c-3.36-3.68-6.33-6.76-9.3-9.6-.03-.03-.07-.07-.1-.1-15.84-17.96-25.79-38.08-31.35-51.79-3.15-7.78-10.9-13.08-19.68-13.48-.25-.02-.42-.03-.58-.03h-.17c-.13-.01-.47-.05-.63-.06l-2.58-.09,.14,.14h-12.12l.07,.07h-28.82l-.15-.24h-41.66l-.14,.17-.87,.07h-35.97l.21-.24h-14.39c-.22,0-.38,0-.54,.02-.57,.02-1.05,.07-1.44,.12-.06,0-.12,.01-.18,.01h-1.34c-.16,0-.34,0-.5,.02-.18,0-.35,0-.54,.03-8.84,.43-16.58,5.72-19.73,13.48-5.57,13.73-15.52,33.85-31.23,51.67-.03,.04-.06,.07-.1,.1-2.92,2.8-5.9,5.87-9.34,9.65l-.4,.4c-1.8,1.63-3.14,3.22-4.01,4.76l-.18,.21c-.07,.08-.14,.15-.2,.23v.02c-11.93,10.76-21.43,26.93-27.5,46.77-4.63,15.16-6.98,31.5-6.98,48.57,0,18.73,2.96,37.21,8.58,53.5l.02,.09c1.48,7.06,3.41,14.16,5.73,21.08,6.33,18.81,15.61,36.23,27.56,51.77l.09,.17c.27,.43,.52,.87,.77,1.31l.39,.67c.21,.37,.43,.74,.64,1.1l.15,.19c1.35,1.38,34.33,35.96,45.61,73.06l-1.1-1.41"/><path d="M479.13,144.28c-14.91-11.97-33.46-26.86-42.69-40.67-5.18-7.73-6.91-14.15-5.3-19.65,.8-2.71,2.43-5.1,4.96-7.29,2.23-1.93,4.86-3.46,7.25-4.84,4.05-2.34,7.87-4.55,7.69-8.33-.24-4.18-5.08-7.4-15.7-10.44-10.75-3.05-27.9-5.87-50.96-8.36,.61-1.13,1.79-2.26,3.55-3.4,1.44-.93,3.26-1.88,5.73-3,.61-.27,1.22-.54,1.81-.81,5.41-2.43,10.08-4.52,9.96-8.41-.02-1.67-1.03-3.4-3.08-5.28C391.73,14.09,350.93,0,311.14,0c-23.15,0-42.85,4.5-58.55,13.37C236.87,4.5,217.17,0,194.03,0c-39.85,0-80.63,14.11-91.21,23.83-2.01,1.87-3.02,3.58-3.08,5.26-.11,3.9,4.57,6,9.99,8.42,2.61,1.17,5.32,2.39,7.5,3.8,1.78,1.16,2.97,2.28,3.59,3.41-23.06,2.49-40.2,5.3-50.96,8.36-10.67,3.05-15.51,6.27-15.69,10.45-.2,3.77,3.63,5.99,7.74,8.36,2.33,1.35,4.96,2.88,7.19,4.81,2.53,2.21,4.14,4.6,4.93,7.29,1.61,5.48-.12,11.91-5.27,19.65-9.24,13.78-27.79,28.68-42.69,40.65-6.06,4.86-12.32,9.88-16.93,14.08-7.8,7.12-10.3,11.36-8.63,14.65,.35,.69,1.26,1.85,3.42,1.85,1.58,0,3.76-.6,7.29-2.02,1.42-.56,2.98-1.23,4.62-1.93l.66-.28c8.25-3.54,18.51-7.95,27.16-7.95,3.03,0,5.66,.57,7.84,1.7C14.77,231.89,2.48,267.05,12.8,275.04c1.76,1.36,4.24,2.05,7.38,2.05,3.97,0,8.8-1.09,14.11-3.18-7.28,14.83-13.78,33.45-17.56,50.39-2.31,10.3-3.45,19.46-3.32,26.48,.17,8.69,2.2,14.39,6.04,16.95,1.66,1.13,3.72,1.7,6.12,1.7,7.36,0,18-5.63,28.12-14.82-.31,12.27-4.68,29.54-8.56,44.88l-.05,.19c-6.16,24.3-9.35,38.19-3.24,41.07,.62,.29,1.29,.43,1.98,.43,4.92,0,10.89-7.34,18.46-16.63l.09-.11c3.14-3.85,6.39-7.84,9.5-11.13,5.27-5.6,9.14-8.04,11.37-7.32,8.59,2.9,3.39,37.18-1.21,67.46l-.08,.51c-.69,4.56-1.4,9.17-2.06,13.75-2.39,16.31-4.79,34.9-4.51,49.06,.26,12.56,2.44,18.86,7.05,20.42,.66,.23,1.36,.34,2.07,.34,5.87,0,12.43-7.51,21.09-19.64,1.72-2.41,3.46-4.92,5.21-7.42,8.1-11.65,17.27-24.85,22.44-24.85,.23,0,.45,.04,.67,.11,1.71,.58,5.5,4.76,3.71,30.87-1.39,20.22-5.41,46.26-9.29,71.45l-.72,4.71c-.55,3.61-1.1,7.17-1.63,10.65-6.7,44.51-7.03,57.85-1.49,59.47,.31,.09,.66,.14,1.02,.14,6.23,0,14.66-16.68,32.42-54.73l1.81-3.88c7.64-16.32,23.53-50.27,28.06-50.29,1.85,1.14,.34,16.63-.3,23.25v.12c-.99,9.89-1.99,20.12-.91,26.55,.64,3.9,2.04,6.21,4.27,7.05,.58,.22,1.2,.34,1.85,.34,2.76,0,5.98-2.01,10.15-6.33,14.54-15.13,37.68-56.87,49.76-80.49,12.11,23.66,35.29,65.46,49.75,80.49,4.09,4.26,7.41,6.33,10.14,6.33,.65,0,1.27-.11,1.83-.33,2.24-.85,3.65-3.15,4.29-7.05,1.07-6.37,.07-16.58-.89-26.45v-.12c-.66-6.64-2.18-22.2-.41-23.32,4.61,0,20.51,33.96,28.15,50.29l1.76,3.75c17.8,38.13,26.25,54.84,32.48,54.84h.2c.29-.03,.57-.07,.84-.15,5.55-1.64,5.22-14.98-1.5-59.47-.7-4.64-1.44-9.42-2.19-14.27l-.12-.78c-3.91-25.35-7.96-51.56-9.34-71.77-1.71-25.16,1.59-30.14,3.72-30.87,.2-.07,.41-.1,.66-.1,5.14,0,14.33,13.2,22.44,24.85l.11,.16c1.7,2.45,3.41,4.9,5.09,7.26,8.67,12.12,15.22,19.64,21.09,19.64,.71,0,1.41-.12,2.06-.34,4.64-1.56,6.81-7.86,7.04-20.43,.28-14.12-2-31.92-4.5-49.04-.69-4.75-1.41-9.52-2.14-14.3-4.58-30.24-9.77-64.51-1.19-67.41,2.28-.76,6.1,1.74,11.37,7.32,3.07,3.26,6.28,7.21,9.39,11.03l.13,.16c7.58,9.32,13.58,16.68,18.51,16.68,.71,0,1.38-.15,1.98-.43,6.1-2.86,2.91-16.75-3.25-41.04-4.3-16.91-9.14-35.96-8.6-48.34,10.86,10.87,23.35,18.06,31.54,18.06,2.38,0,4.44-.57,6.12-1.7,3.47-2.31,5.46-7.2,5.93-14.54,.38-5.95-.25-13.43-1.85-22.22-4.67-25.5-17.92-61.16-30.89-76.52,4.23,.66,8.45,1.01,12.35,1.01,11.42,0,20.05-2.82,23.71-7.74,8.46-11.45-5.63-38.02-44.32-83.56,2.1-.99,4.59-1.49,7.43-1.49,8.69,0,18.96,4.42,27.29,8.01,5.44,2.34,9.74,4.18,12.42,4.18,2.17,0,3.08-1.17,3.42-1.86,2.82-5.57-6.82-13.67-25.53-28.7Zm23.74,27.8c-.25,.51-.79,.76-1.64,.76-2.26,0-6.6-1.86-11.71-4.06-8.42-3.62-18.89-8.13-28-8.13-3.7,0-6.9,.78-9.51,2.33l-1.02,.6,.77,.9c37.54,44.06,52.69,71.66,45.04,82.03-3.27,4.4-11.32,6.93-22.1,6.93-4.67,0-9.8-.51-14.85-1.47l-3.13-.6,2.23,2.28c13.32,13.63,27.47,51.16,32.33,77.66,1.58,8.64,2.19,15.95,1.83,21.74-.43,6.68-2.13,11.06-5.05,13-1.35,.9-3.04,1.36-5.01,1.36-7.96,0-20.97-7.83-31.66-19.04l-1.49-1.57-.23,2.15c-1.32,12.59,3.89,33.12,8.5,51.22,4.76,18.74,9.25,36.44,4.34,38.74-.34,.16-.72,.24-1.13,.24-3.98,0-10.28-7.74-16.97-15.96l-.11-.13c-3.13-3.85-6.37-7.82-9.49-11.14-6.1-6.46-10.29-8.9-13.46-7.84-10.18,3.44-5.31,35.58-.15,69.66,.72,4.73,1.44,9.5,2.13,14.24,2.49,17.04,4.76,34.74,4.48,48.72-.21,11.28-2.07,17.35-5.69,18.57-5.34,1.86-13.25-7.9-20.88-18.57-1.68-2.35-3.38-4.79-5.08-7.24l-.11-.16c-9.2-13.22-17.89-25.71-24.08-25.71-.47,0-.92,.07-1.32,.21-3.06,1.05-6.92,5.61-5.06,32.89,1.39,20.29,5.44,46.55,9.36,71.93l.12,.78c.75,4.84,1.49,9.62,2.19,14.26,5.19,34.35,7.49,55.9,2.92,57.25-.14,.04-.28,.06-.45,.06h-.17c-5.67-.44-18.3-27.5-30.53-53.67l-1.76-3.76c-13.17-28.14-24.51-51.44-29.96-51.44-.18,0-.34,.02-.52,.08-2.96,.92-2.72,8.59-1.08,25.44v.12c.96,9.74,1.94,19.81,.92,25.93-.52,3.13-1.51,4.93-3.04,5.51-2.16,.85-5.49-1.01-9.81-5.51-14.66-15.24-38.51-58.56-50.3-81.76l-.89-1.76-.89,1.76c-11.75,23.15-35.56,66.42-50.31,81.76-3.66,3.79-6.59,5.71-8.71,5.71-.4,0-.78-.07-1.14-.21-1.51-.57-2.49-2.37-3.01-5.51-1.04-6.17,0-16.72,.92-26.03v-.12c1.65-16.79,1.88-24.43-1.08-25.35-.16-.05-.33-.07-.51-.07-5.45,0-16.79,23.29-29.96,51.42l-1.81,3.88c-12.29,26.34-25,53.57-30.6,53.57-.17,0-.32-.02-.45-.06-4.56-1.33-2.27-22.9,2.9-57.25,.52-3.48,1.07-7.04,1.63-10.64l.72-4.71c3.89-25.22,7.92-51.31,9.31-71.61,1.41-20.49-.24-31.25-5.07-32.9-.43-.14-.86-.21-1.3-.21-6.21,0-14.89,12.49-24.08,25.71-1.74,2.5-3.48,4.99-5.19,7.4-6.98,9.76-14.17,18.8-19.47,18.8-.48,0-.96-.08-1.42-.24-3.6-1.21-5.46-7.28-5.7-18.56-.28-14.01,2.11-32.49,4.49-48.73,.67-4.58,1.37-9.18,2.06-13.74l.08-.54c5.17-34.04,10.05-66.18-.15-69.62-3.18-1.03-7.37,1.38-13.46,7.84-3.16,3.35-6.43,7.36-9.59,11.24l-.09,.11c-7.33,9-14.18,17.42-18.04,15.65-4.91-2.31-.42-20.01,4.33-38.76l.05-.19c4.16-16.44,8.88-35.07,8.63-47.69l-.05-2.27-1.64,1.57c-10.1,9.62-21.27,15.84-28.44,15.84-1.99,0-3.67-.46-5.01-1.36-3.27-2.18-5-7.33-5.15-15.33-.13-6.86,1-15.85,3.28-26,3.95-17.71,10.9-37.27,18.59-52.32l1.28-2.5-2.57,1.13c-5.95,2.61-11.57,4.05-15.81,4.05-2.69,0-4.76-.55-6.16-1.63-9.19-7.11,4.16-43.78,39.68-108.98l.45-.83-.8-.5c-2.65-1.64-5.92-2.47-9.72-2.47-9.06,0-19.53,4.5-27.97,8.12l-.63,.27c-1.63,.7-3.17,1.36-4.57,1.91-3.23,1.3-5.25,1.88-6.55,1.88-.84,0-1.38-.25-1.64-.75-1.14-2.23,1.47-6.13,8.19-12.27,4.56-4.16,10.8-9.16,16.83-14,15.01-12.05,33.7-27.05,43.11-41.1,5.51-8.26,7.31-15.24,5.53-21.33-.9-3.07-2.71-5.76-5.54-8.23-2.37-2.06-5.1-3.64-7.55-5.06-3.66-2.12-6.83-3.94-6.69-6.5,.14-3.1,4.8-5.92,14.24-8.62,10.85-3.08,28.31-5.92,51.91-8.44l1.12-.12-.26-1.1c-.47-2.02-2.06-3.89-4.87-5.71-2.31-1.5-5.09-2.75-7.78-3.95-4.56-2.04-8.87-3.97-8.8-6.53,.04-1.09,.86-2.39,2.44-3.85C114.51,15.8,154.65,2,194.03,2c23.04,0,42.57,4.5,58.06,13.39l.5,.29,.5-.29c15.48-8.88,35.01-13.39,58.05-13.39,39.32,0,79.48,13.78,89.84,23.27,1.6,1.47,2.42,2.76,2.44,3.85,.08,2.56-4.22,4.49-8.79,6.54-.59,.27-1.18,.54-1.79,.81-2.57,1.16-4.48,2.15-6,3.14-2.78,1.81-4.36,3.68-4.83,5.71l-.25,1.1,1.12,.12c23.6,2.52,41.07,5.36,51.91,8.44,9.41,2.7,14.08,5.52,14.26,8.63,.12,2.55-3.04,4.38-6.75,6.53-2.4,1.39-5.12,2.97-7.49,5.02-2.83,2.45-4.65,5.14-5.57,8.23-1.79,6.1,.03,13.08,5.56,21.33,9.4,14.06,28.08,29.06,43.1,41.11,14.6,11.73,27.21,21.85,24.99,26.24Z"/></g><g id="locs"><g><g><path class="cls-4" d="M212.09,24.07c-7.18,8.17-15.16,15.34-23.1,21.37-1.6,1.23-3.23,2.38-4.8,3.51-.49,.33-.97,.67-1.46,1-4.3,2.96-8.5,5.54-12.48,7.76-1.1,.61-2.2,1.18-3.25,1.73-12.25,6.32-21.81,8.64-24.14,6.01-4.07-4.62,12.34-25.92,25.29-41.38h43.94Z"/><path d="M212.09,24.07c-10.69,12.82-23.7,23.63-37.91,32.35-4.78,3.12-35.79,19.91-32.67,5,1.1-4.19,3.46-7.82,5.7-11.41,6.13-9.31,13.12-17.97,20.35-26.43l.24-.28h.35c12.75,.22,31.46,.56,43.94,.77h0Zm0,0c-12.91,.12-30.93,.62-43.94,.77l.59-.27c-6.84,8.87-24.36,28.79-25.51,39.09,.36,4.59,12.76-.27,15.36-1.3,20.3-8.68,38.37-22.25,53.51-38.28h0Z"/></g><rect class="cls-4" x="155.13" y="9.73" width="72.89" height="15.53" rx="6.5" ry="6.5"/></g><g><g><path class="cls-4" d="M33.62,252.58c-4.92,10.31-8.49,20.32-10.96,29.43-.51,1.85-.93,3.65-1.36,5.41-.12,.53-.24,1.06-.35,1.6-1.04,4.71-1.74,9.06-2.18,13.02-.12,1.09-.2,2.15-.28,3.17-.86,11.8,1.05,19.02,4.67,18.35,6.36-1.19,20.18-26.75,29.76-45.89l-19.3-25.08h0Z"/><path d="M33.62,252.58c-6.55,14.95-11.54,30.63-13.66,46.81-.62,5.86-2.12,18.52,1.91,22.94,3.63,2.19,12.76-13.38,14.7-16.37,5.62-9.31,10.72-18.95,15.77-28.59l.07,.68c-5.4-7.28-13.33-18.03-18.79-25.47h0Zm0,0c5.97,7.53,14.21,17.49,20.06,25-4.81,9.97-9.85,19.82-15.52,29.34-2.84,4.69-5.72,9.36-9.38,13.6-1.49,1.59-3.07,3.35-5.36,3.96-8.33,.91-5.84-20.31-5.16-25.32,2.45-16.24,7.91-32,15.35-46.58h0Z"/></g><rect class="cls-4" x="39.42" y="233.03" width="19.36" height="52.5" rx="5.59" ry="5.59" transform="translate(-147.97 83.78) rotate(-37.59)"/></g><g><g><path class="cls-4" d="M71.34,303.08c-2.68,5.62-4.63,11.08-5.98,16.05-.28,1.01-.51,1.99-.74,2.95-.07,.29-.13,.58-.19,.87-.57,2.57-.95,4.94-1.19,7.1-.07,.59-.11,1.17-.15,1.73-.47,6.44,.57,10.37,2.55,10.01,3.47-.65,11.01-14.59,16.23-25.03l-10.53-13.68h0Z"/><path d="M71.34,303.08c-3.57,8.15-6.29,16.71-7.45,25.53-.34,3.2-1.16,10.1,1.04,12.51,1.98,1.19,6.96-7.3,8.02-8.93,3.07-5.08,5.85-10.34,8.6-15.59l.04,.37c-2.95-3.97-7.27-9.83-10.25-13.89h0Zm0,0c3.26,4.11,7.75,9.54,10.94,13.63-2.62,5.44-5.37,10.81-8.46,16-1.55,2.56-3.12,5.1-5.12,7.42-.81,.87-1.67,1.83-2.92,2.16-4.54,.5-3.19-11.08-2.81-13.81,1.34-8.86,4.31-17.45,8.37-25.4h0Z"/></g><rect class="cls-4" x="74.5" y="292.42" width="10.56" height="28.63" rx="3.05" ry="3.05" transform="translate(-170.55 112.35) rotate(-37.59)"/></g><g><g><path class="cls-4" d="M43.44,149.77c-4.56,7.91-8.04,15.94-10.59,23.48-.53,1.53-.97,3.04-1.43,4.52-.13,.45-.26,.89-.38,1.35-1.13,3.97-1.97,7.72-2.57,11.18-.17,.96-.3,1.9-.43,2.8-1.45,10.47-.41,17.6,2.49,18.07,5.11,.82,17.7-18.3,26.53-32.84l-13.63-28.57h.01Z"/><path d="M43.44,149.77c-6.33,11.96-11.05,24.73-13.63,37.98-.94,5.4-3.05,17.9,.38,22.2,1.85,1.18,5.51-3.08,6.87-4.46,7.39-8.45,13.31-18.07,19.37-27.54l-.04,.7c-4.38-9.49-8.56-19.31-12.96-28.88h0Zm0,0c4.61,9.27,9.86,19.22,14.46,28.6-4.68,7.92-9.5,15.76-15.04,23.14-6.97,9.47-16.4,18.51-16.43-.49,.88-18.27,7.62-35.78,17-51.25h.01Z"/></g><rect class="cls-4" x="48.11" y="134.25" width="14.3" height="52.5" rx="5.59" ry="5.59" transform="translate(-63.71 39.43) rotate(-25.5)"/></g><g><g><path class="cls-4" d="M83.48,370.44c-4.25,8.57-7.37,17.34-9.57,25.62-.46,1.68-.83,3.34-1.22,4.96-.1,.5-.21,.98-.32,1.48-.94,4.37-1.6,8.51-2.02,12.34-.12,1.06-.2,2.1-.29,3.1-.91,11.6,.55,19.62,3.56,20.31,5.29,1.19,17.16-19.44,25.42-35.18l-15.56-32.63Z"/><path d="M83.48,370.44c-7.77,17.44-12.85,36.41-12.75,55.55,.08,2.32,.55,11.72,3.71,11.27,7.82-3.53,19.16-26.35,23.94-34.54v.67c-5.07-10.95-9.81-21.87-14.91-32.95h0Zm0,0c5.3,10.67,10.93,21.5,16.24,32.31l.16,.32-.17,.34c-4.09,7.77-17.04,33.65-24.83,35.77-5.54,.97-5.82-9.51-5.96-13.14,.02-19.36,5.67-38.53,14.57-55.6h-.01Z"/></g><rect class="cls-4" x="89.07" y="353.09" width="14.3" height="59.97" rx="5.59" ry="5.59" transform="translate(-155.54 78.74) rotate(-25.5)"/></g><g><g><path class="cls-4" d="M356.51,611.98c-2.64,5.32-4.57,10.76-5.94,15.9-.29,1.04-.52,2.07-.76,3.08-.06,.31-.13,.61-.2,.92-.58,2.71-.99,5.28-1.25,7.66-.07,.66-.12,1.3-.18,1.92-.56,7.2,.34,12.18,2.21,12.6,3.28,.74,10.65-12.06,15.78-21.83l-9.66-20.25Z"/><path d="M356.51,611.98c-4.82,10.82-7.97,22.6-7.91,34.47,.05,1.44,.34,7.27,2.3,6.99,4.85-2.19,11.89-16.35,14.86-21.44v.42c-3.15-6.8-6.09-13.57-9.25-20.45h0Zm0,0c3.29,6.62,6.78,13.34,10.08,20.05l.1,.2-.11,.21c-2.54,4.82-10.57,20.88-15.41,22.2-3.44,.6-3.61-5.9-3.7-8.15,.01-12.01,3.52-23.91,9.04-34.5h0Z"/></g><rect class="cls-4" x="359.97" y="601.21" width="8.87" height="37.22" rx="3.47" ry="3.47" transform="translate(-231.34 217.26) rotate(-25.5)"/></g><g><g><path class="cls-4" d="M271.44,551.65c-1.96,7.13-3.04,14.13-3.49,20.57-.1,1.31-.14,2.58-.2,3.83,0,.38-.02,.75-.02,1.13-.07,3.34,.03,6.45,.27,9.29,.07,.78,.15,1.55,.23,2.28,1,8.5,3.28,13.88,5.65,13.65,4.17-.4,10.13-17.96,14.08-31.16l-16.52-19.6h0Z"/><path d="M271.44,551.65c-2.43,10.68-3.46,21.64-2.75,32.54,.26,3.61,.71,7.21,1.59,10.67,.65,2.24,1.3,5.15,3.17,6.48,.22,.08,.33,.08,.56,0,1.69-.97,2.63-3.02,3.67-4.82,4.05-8.12,6.74-16.85,9.58-25.49l.14,.68c-5.36-6.57-10.55-13.43-15.96-20.07h0Zm0,.01c5.53,6.3,11.79,13.01,17.33,19.41-2.03,7.2-4.2,14.36-7.03,21.31-.71,1.71-1.45,3.4-2.31,5.07-1.16,2.04-2.31,4.63-4.71,5.76-4.01,1.21-5.55-5.18-6.29-7.87-3.03-14.53-1.29-29.65,3.02-43.67h0Z"/></g><rect class="cls-4" x="277.11" y="536.37" width="11.58" height="42.52" rx="5.07" ry="5.07" transform="translate(-292.81 313.61) rotate(-40.13)"/></g><g><g><path class="cls-4" d="M129.52,485.77c-4.56,7.91-8.04,15.94-10.59,23.48-.53,1.53-.97,3.04-1.43,4.52-.13,.45-.26,.89-.38,1.35-1.13,3.97-1.97,7.72-2.57,11.18-.17,.96-.3,1.9-.43,2.8-1.45,10.47-.41,17.6,2.49,18.07,5.11,.82,17.7-18.3,26.53-32.84l-13.63-28.57h0Z"/><path d="M129.52,485.77c-6.33,11.96-11.05,24.73-13.63,37.98-.94,5.4-3.05,17.9,.38,22.2,1.85,1.19,5.51-3.08,6.87-4.46,7.39-8.45,13.31-18.07,19.37-27.54l-.04,.7c-4.38-9.49-8.56-19.31-12.96-28.88h0Zm0,0c4.61,9.27,9.86,19.22,14.46,28.6-4.68,7.92-9.5,15.76-15.04,23.14-6.97,9.47-16.4,18.51-16.43-.49,.88-18.27,7.62-35.78,17-51.25h0Z"/></g><rect class="cls-4" x="134.21" y="470.26" width="14.3" height="52.5" rx="5.59" ry="5.59" transform="translate(-199.98 109.22) rotate(-25.5)"/></g><g><g><path class="cls-4" d="M295.55,24.07c7.18,8.17,15.16,15.34,23.1,21.37,1.6,1.23,3.23,2.38,4.8,3.51,.49,.33,.97,.67,1.46,1,4.3,2.96,8.5,5.54,12.48,7.76,1.1,.61,2.2,1.18,3.25,1.73,12.25,6.32,21.81,8.64,24.14,6.01,4.07-4.62-12.34-25.92-25.29-41.38h-43.94Z"/><path d="M295.55,24.07c15.13,16.03,33.21,29.61,53.51,38.28,2.62,1.05,15.02,5.87,15.36,1.3-1.15-10.29-18.65-30.19-25.51-39.09l.59,.27c-13.06-.12-30.95-.64-43.94-.77h0Zm0,.01c12.41-.21,31.23-.58,43.94-.77h.35l.24,.27c7.22,8.46,14.21,17.12,20.35,26.43,2.24,3.59,4.6,7.22,5.7,11.41,3.13,14.9-27.87-1.87-32.67-5-14.21-8.72-27.22-19.53-37.91-32.35h0Z"/></g><rect class="cls-4" x="279.61" y="9.74" width="72.89" height="15.53" rx="6.5" ry="6.5"/></g><g><g><path class="cls-4" d="M450.32,297.13c4.14,8.8,7.15,17.82,9.22,26.34,.43,1.73,.78,3.44,1.15,5.11,.1,.51,.2,1.01,.3,1.53,.87,4.5,1.47,8.77,1.84,12.73,.1,1.09,.17,2.17,.24,3.2,.73,11.98-.87,20.3-3.92,21.06-5.35,1.32-16.97-19.82-25.04-35.97l16.22-34h0Z"/><path d="M450.32,297.13c6.69,13.19,10.94,27.58,12.97,42.22,2.05,14.6,1.52,44.86-15.66,18.04-5.41-8.42-10.04-17.27-14.37-26.27,4.95-9.9,12.21-24.31,17.06-34h0Zm0,0c-4.66,10.07-10.86,24.18-15.54,34.33v-.66c4.55,8.68,9.06,17.42,14.44,25.55,2.02,2.97,4.1,5.98,6.76,8.37,.84,.75,1.84,1.41,2.6,1.45,.35,.01,.61-.12,.95-.39,1.09-1.19,1.55-2.88,1.92-4.5,1.42-7.11,.93-14.51,.18-21.72-1.62-14.6-5.5-28.9-11.3-42.43h-.01Z"/></g><rect class="cls-4" x="406.02" y="303.22" width="62.5" height="14.3" rx="5.59" ry="5.59" transform="translate(-31.11 571.43) rotate(-64.5)"/></g><g><g><path class="cls-4" d="M462.73,145.6c5.46,8.33,9.72,16.74,12.92,24.6,.66,1.59,1.23,3.16,1.81,4.7,.16,.47,.33,.93,.49,1.4,1.45,4.13,2.58,8.01,3.42,11.59,.23,.99,.43,1.96,.62,2.89,2.14,10.8,1.36,18.05-1.84,18.39-5.61,.58-20.54-19.65-31.06-34.99l13.63-28.57h0Z"/><path d="M462.73,145.6c8.35,11.96,14.88,25.32,18.81,39.41,3.31,10.97,6.39,37.19-11,18.7-8.41-9.05-15.39-19.3-22.26-29.49,4.72-9.6,9.74-19.16,14.45-28.62h0Zm0,0c-4.45,9.69-8.57,19.3-12.98,28.87l-.06-.71c7.05,9.84,14.02,19.76,22.28,28.58,1.55,1.51,7,7.41,8.9,5.36,3.08-4.84,.31-16.7-.98-22.26-3.63-14.06-9.62-27.42-17.16-39.85h0Z"/></g><rect class="cls-4" x="423.92" y="147.88" width="52.5" height="16.18" rx="5.59" ry="5.59" transform="translate(115.59 495.14) rotate(-64.5)"/></g><g><g><path class="cls-4" d="M446.95,219.34c4.04,6.17,7.2,12.39,9.56,18.21,.49,1.18,.91,2.34,1.34,3.48,.12,.35,.24,.69,.36,1.04,1.07,3.06,1.91,5.93,2.53,8.58,.17,.73,.32,1.45,.46,2.14,1.58,7.99,1.01,13.36-1.36,13.61-4.15,.43-15.2-14.55-22.99-25.9l10.09-21.15h0Z"/><path d="M446.95,219.34c6.18,8.85,11.01,18.74,13.92,29.17,2.45,8.12,4.73,27.53-8.14,13.84-6.23-6.7-11.39-14.29-16.48-21.83,3.49-7.11,7.21-14.18,10.7-21.19h0Zm0,0c-3.29,7.17-6.34,14.29-9.61,21.37l-.04-.53c5.22,7.28,10.38,14.63,16.49,21.16,1.15,1.12,5.18,5.49,6.59,3.97,2.28-3.58,.23-12.36-.73-16.48-2.69-10.41-7.12-20.3-12.7-29.5h0Z"/></g><rect class="cls-4" x="418.22" y="221.02" width="38.86" height="11.98" rx="4.14" ry="4.14" transform="translate(44.34 524.3) rotate(-64.5)"/></g><g><g><path class="cls-4" d="M394.73,93c3.65,5.57,6.5,11.2,8.64,16.45,.44,1.07,.83,2.12,1.21,3.14,.11,.31,.22,.62,.33,.94,.97,2.76,1.72,5.36,2.29,7.75,.16,.66,.29,1.31,.42,1.93,1.43,7.22,.91,12.08-1.23,12.3-3.75,.39-13.74-13.14-20.78-23.41l9.12-19.11h0Z"/><path d="M394.73,93c7.51,10.66,13.37,22.87,14.62,36.05,.03,2.47,.3,6.98-3,7.45-1.32,0-2.08-.57-2.84-1.03-2.81-1.99-4.88-4.53-7.05-7.09-4.24-5.19-8.01-10.67-11.67-16.23,3.21-6.44,6.73-12.85,9.94-19.16h0Zm0,0c-2.95,6.54-5.57,13-8.47,19.42l-.06-.71c3.79,5.26,7.61,10.5,11.74,15.45,2.02,2.36,4.18,4.89,6.68,6.67,.74,.45,1.53,1.02,2,.51,.97-1.45,.82-3.46,.81-5.18-.14-3.14-.73-6.31-1.5-9.42-2.38-9.4-6.29-18.34-11.2-26.73h0Z"/></g><path class="cls-4" d="M376.22,108.58l10.46-21.93c1.29-2.7,4.52-3.84,7.21-2.55h0c2.7,1.29,3.84,4.52,2.55,7.21l-10.46,21.93c-1.29,2.7-4.52,3.84-7.21,2.55h0c-2.7-1.29-3.84-4.52-2.55-7.21Z"/></g><g><g><path class="cls-4" d="M101.4,93c-3.65,5.57-6.5,11.2-8.64,16.45-.44,1.07-.83,2.12-1.21,3.14-.11,.31-.22,.62-.33,.94-.97,2.76-1.72,5.36-2.29,7.75-.16,.66-.29,1.31-.42,1.93-1.43,7.22-.91,12.08,1.23,12.3,3.75,.39,13.74-13.14,20.78-23.41l-9.12-19.11h0Z"/><path d="M101.4,93c-4.91,8.39-8.83,17.33-11.2,26.73-.76,3.11-1.36,6.28-1.5,9.42,0,1.73-.16,3.74,.81,5.18,1.07,1,4.55-2.69,5.48-3.59,5.51-5.89,10.19-12.49,14.94-19.03l-.06,.71c-2.91-6.42-5.52-12.87-8.47-19.42h0Zm0,0c3.2,6.31,6.73,12.71,9.94,19.16-3.65,5.56-7.43,11.04-11.67,16.23-2.18,2.56-4.24,5.1-7.05,7.09-.76,.46-1.52,1.02-2.84,1.03-3.3-.47-3.03-4.99-3-7.45,1.25-13.19,7.11-25.4,14.62-36.05h0Z"/></g><path class="cls-4" d="M110.14,113.25l-10.46-21.93c-1.29-2.7-.14-5.93,2.55-7.21h0c2.7-1.29,5.93-.14,7.21,2.55l10.46,21.93c1.29,2.7,.14,5.93-2.55,7.21h0c-2.7,1.29-5.93,.14-7.21-2.55Z"/></g><g><g><path class="cls-4" d="M417.19,384.77c4.56,7.91,8.04,15.94,10.59,23.48,.53,1.53,.97,3.04,1.43,4.52,.13,.45,.26,.89,.38,1.35,1.13,3.97,1.97,7.72,2.57,11.18,.17,.96,.3,1.9,.43,2.8,1.45,10.47,.41,17.6-2.49,18.07-5.11,.82-17.7-18.3-26.53-32.84l13.63-28.57h-.01Z"/><path d="M417.19,384.77c9.38,15.46,16.12,32.98,17,51.25-.02,18.96-9.43,10-16.43,.49-5.53-7.38-10.36-15.21-15.04-23.14,4.6-9.38,9.85-19.33,14.46-28.6h.01Zm0,0c-4.4,9.57-8.58,19.39-12.96,28.88l-.04-.7c6.06,9.47,11.99,19.09,19.37,27.54,1.4,1.41,5.01,5.63,6.87,4.46,3.44-4.3,1.31-16.8,.38-22.2-2.58-13.26-7.3-26.03-13.63-37.98h.01Z"/></g><rect class="cls-4" x="379.11" y="388.34" width="52.5" height="14.3" rx="5.59" ry="5.59" transform="translate(-126.12 591.1) rotate(-64.5)"/></g><g><g><path class="cls-4" d="M228.42,559.1c1.96,7.13,3.04,14.13,3.49,20.57,.1,1.31,.14,2.58,.2,3.83,0,.38,.02,.75,.02,1.13,.07,3.34-.03,6.45-.27,9.29-.07,.78-.15,1.55-.23,2.28-1,8.5-3.28,13.88-5.65,13.65-4.17-.4-10.13-17.96-14.08-31.16l16.52-19.6h0Z"/><path d="M228.42,559.1c4.31,14.03,6.05,29.14,3.02,43.67-.75,2.71-2.28,9.08-6.29,7.87-2.4-1.13-3.55-3.72-4.71-5.76-.86-1.66-1.6-3.36-2.31-5.07-2.84-6.95-5-14.11-7.03-21.31,5.55-6.41,11.81-13.12,17.33-19.41h-.01Zm0,.01c-5.4,6.64-10.59,13.5-15.96,20.07l.14-.68c2.84,8.65,5.52,17.37,9.58,25.49,1.04,1.8,1.97,3.85,3.67,4.82,.23,.08,.34,.07,.56,0,1.86-1.34,2.52-4.24,3.17-6.48,.88-3.46,1.33-7.06,1.59-10.67,.72-10.91-.32-21.86-2.75-32.54h0Z"/></g><rect class="cls-4" x="195.71" y="559.3" width="42.52" height="11.58" rx="5.07" ry="5.07" transform="translate(-354.93 366.77) rotate(-49.87)"/></g><g><g><path class="cls-4" d="M157.59,602.02c1.96,7.13,3.04,14.13,3.49,20.57,.1,1.31,.14,2.58,.2,3.83,0,.38,.02,.75,.02,1.13,.07,3.34-.03,6.45-.27,9.29-.07,.78-.15,1.55-.23,2.28-1,8.5-3.28,13.88-5.65,13.65-4.17-.4-10.13-17.96-14.08-31.16l16.52-19.6h0Z"/><path d="M157.59,602.02c4.31,14.03,6.05,29.14,3.02,43.67-.75,2.71-2.28,9.08-6.29,7.87-2.4-1.13-3.55-3.72-4.71-5.76-.86-1.66-1.6-3.36-2.31-5.07-2.84-6.95-5-14.11-7.03-21.31,5.55-6.41,11.81-13.12,17.33-19.41h-.01Zm0,.01c-5.4,6.64-10.59,13.5-15.96,20.07l.14-.68c2.84,8.65,5.52,17.37,9.58,25.49,1.04,1.8,1.97,3.85,3.67,4.82,.23,.08,.34,.07,.56,0,1.86-1.34,2.52-4.24,3.17-6.48,.88-3.46,1.33-7.06,1.59-10.67,.72-10.91-.32-21.86-2.75-32.54h0Z"/></g><rect class="cls-4" x="124.88" y="602.21" width="42.52" height="11.58" rx="5.07" ry="5.07" transform="translate(-412.92 327.86) rotate(-49.87)"/></g><g><g><path class="cls-4" d="M378.19,487.77c4.56,7.91,8.04,15.94,10.59,23.48,.53,1.53,.97,3.04,1.43,4.52,.13,.45,.26,.89,.38,1.35,1.13,3.97,1.97,7.72,2.57,11.18,.17,.96,.3,1.9,.43,2.8,1.45,10.47,.41,17.6-2.49,18.07-5.11,.82-17.7-18.3-26.53-32.84l13.63-28.57h-.01Z"/><path d="M378.19,487.77c9.38,15.46,16.12,32.98,17,51.25-.02,18.96-9.43,10-16.43,.49-5.53-7.38-10.36-15.21-15.04-23.14,4.6-9.38,9.85-19.33,14.46-28.6h.01Zm0,0c-4.4,9.57-8.58,19.39-12.96,28.88l-.04-.7c6.06,9.47,11.99,19.09,19.37,27.54,1.4,1.41,5.01,5.63,6.87,4.46,3.44-4.3,1.31-16.8,.38-22.2-2.58-13.26-7.3-26.03-13.63-37.98h.01Z"/></g><rect class="cls-4" x="340.12" y="491.34" width="52.5" height="14.3" rx="5.59" ry="5.59" transform="translate(-241.28 614.56) rotate(-64.5)"/></g><g><g><path class="cls-4" d="M261.23,59c6.01,6.84,12.69,12.84,19.33,17.88,1.34,1.03,2.7,1.99,4.02,2.94,.41,.28,.81,.56,1.22,.84,3.6,2.48,7.11,4.64,10.44,6.49,.92,.51,1.84,.99,2.72,1.45,10.25,5.29,18.25,7.23,20.2,5.03,3.41-3.87-10.33-21.69-21.16-34.63h-36.77Z"/><path d="M261.23,59c12.73,13.32,27.85,24.67,44.85,31.87,2.12,.83,12.29,4.81,12.62,1.25-.31-3.81-2.75-7.19-4.67-10.45-5.01-7.71-10.79-14.98-16.62-22.17l.6,.28c-12.26-.12-24.37-.63-36.77-.78h-.01Zm0,0c12.23-.17,24.75-.67,37.12-.78,6.13,7.18,12.14,14.46,17.32,22.39,9.5,14.27,4.97,18.3-10.31,12-17.12-7.52-32.16-19.35-44.13-33.62h0Z"/></g><path class="cls-4" d="M253.53,47h48c3.59,0,6.5,2.91,6.5,6.5h0c0,3.59-2.91,6.5-6.5,6.5h-48c-3.59,0-6.5-2.91-6.5-6.5h0c0-3.59,2.91-6.5,6.5-6.5Z"/></g><g><g><path class="cls-4" d="M248.69,59c-6.01,6.84-12.69,12.84-19.33,17.88-1.34,1.03-2.7,1.99-4.02,2.94-.41,.28-.81,.56-1.22,.84-3.6,2.48-7.11,4.64-10.44,6.49-.92,.51-1.84,.99-2.72,1.45-10.25,5.29-18.25,7.23-20.2,5.03-3.41-3.87,10.33-21.69,21.16-34.63h36.77Z"/><path d="M248.69,59c-11.97,14.26-27.01,26.1-44.13,33.62-15.24,6.28-19.83,2.31-10.31-12,5.18-7.93,11.18-15.21,17.32-22.39,12.37,.11,24.89,.61,37.12,.78h0Zm0,0c-12.4,.15-24.51,.65-36.77,.78l.6-.28c-5.83,7.19-11.62,14.45-16.62,22.17-1.92,3.26-4.36,6.64-4.67,10.45,.3,3.57,10.55-.43,12.62-1.25,16.99-7.2,32.12-18.54,44.85-31.87h-.01Z"/></g><path class="cls-4" d="M207.53,47h48c3.59,0,6.5,2.91,6.5,6.5h0c0,3.59-2.91,6.5-6.5,6.5h-48c-3.59,0-6.5-2.91-6.5-6.5h0c0-3.59,2.91-6.5,6.5-6.5Z"/></g></g><g id="Layer_9"><path class="cls-4" d="M335.62,445.81s-.06-.04-.1-.06c.01,0,.02-.01,.03-.01,.03,.02,.05,.05,.07,.07Z"/><path class="cls-4" d="M335.62,445.81s-.06-.04-.1-.06c.01,0,.02-.01,.03-.01,.03,.02,.05,.05,.07,.07Z"/><path class="cls-2" d="M131.71,490.49s-.05-.07-.09-.09c0,0-.03,.01-.04,.01,.05,.03,.09,.05,.13,.08h0Z"/><ellipse cx="252.5" cy="458.79" rx="83.03" ry="56.17"/></g><g id="chin"><g><path class="cls-1" d="M312.64,529c-.23,0-.45-.08-.63-.23-.34-.28-.46-.75-.29-1.16,3.38-8.04,4.98-13.37,4.98-21.86,0-2.28-.12-4.56-.35-6.77-.08-.82-.19-1.63-.3-2.44-.66,1.7-1.4,3.38-2.21,5.04-11.83,24.07-37.98,27.31-62,27.31h-.3c-.14,0-.21,0-.27,0-.48,0-.91,0-1.36,0-23.95-.45-49.96-4.19-61.3-28.63-.56-1.21-1.09-2.45-1.59-3.72-.07,.46-.13,.92-.18,1.38-.31,2.56-.47,5.2-.47,7.84,0,8.5,1.61,13.82,4.98,21.86,.17,.41,.05,.88-.29,1.16-.18,.15-.41,.23-.63,.23-.2,0-.39-.06-.56-.17-19.54-13.24-28.64-27.53-28.64-44.98,0-.96,.03-1.93,.09-2.9-.94,4.39-1.27,8.84-.98,13.32,.55,8.78,3.43,16.98,8.54,24.38,.3,.43,.21,1.02-.2,1.35-.18,.15-.4,.22-.62,.22-.27,0-.54-.11-.74-.32-8.21-8.9-12.94-19.74-13.68-31.36-.11-1.79-.13-3.43-.06-5.02,0-.29,.02-.61,.04-.95l1.01-.09-1-.06c.02-.34,.04-.69,.07-1.03,.02-.27,.04-.54,.07-.82,.07-.73,.15-1.49,.26-2.24,.05-.37,.11-.77,.17-1.16,.1-.63,.21-1.24,.34-1.85,.14-.74,.32-1.48,.5-2.22,.12-.52,.26-1.05,.41-1.57,.12-.45,.26-.91,.4-1.36,.15-.5,.32-1.01,.49-1.51,.15-.43,.27-.78,.4-1.13,.1-.29,.21-.57,.32-.85,.12-.31,.24-.63,.38-.95,.2-.49,.4-.99,.63-1.49l.36-.8c.16-.36,.33-.72,.5-1.07,.02-.04,.04-.09,.06-.13-2.43,1.59-4.73,3.23-6.86,4.88-2.34,1.48-4.5,3-6.51,4.56-.03,.02-.06,.04-.09,.07-1.27,.98-2.56,2.05-3.82,3.16-.19,.17-.43,.25-.66,.25-.2,0-.4-.06-.57-.18-.38-.27-.53-.76-.35-1.19,1.74-4.36,5.43-9.26,10.67-14.16,3.46-3.24,7.54-6.43,12.12-9.48l.48-.31c-3.42-2.36-6.59-4.85-9.44-7.41-5.51-4.98-9.55-10.1-11.67-14.8-.5-1.12-.89-2.21-1.18-3.25-.12-.44,.07-.9,.46-1.13,.16-.09,.33-.13,.5-.13,.26,0,.52,.1,.71,.3,.7,.71,1.47,1.39,2.22,2.05,.03,.03,.06,.05,.08,.08,.78,.87,1.69,1.82,2.77,2.89,.05,.04,.1,.08,.14,.12,3.06,2.97,6.73,5.93,10.88,8.79h0s.09,.05,.16,.1c.01,0,.09,.06,.1,.06,3.77,2.6,7.96,5.12,12.47,7.48,.02,0,.05,0,.07-.01,15.41-16.64,46.32-26.96,80.89-26.96s65.93,10.65,81.1,27.18c10.52-5.45,20.45-12,29.54-19.47,.18-.15,.41-.23,.63-.23,.21,0,.42,.07,.6,.2,.37,.28,.5,.77,.32,1.2-1.82,4.21-5.43,8.9-10.42,13.57-3.46,3.24-7.54,6.43-12.12,9.48-.16,.1-.32,.21-.48,.31,3.42,2.36,6.59,4.85,9.44,7.41,6.89,6.22,11.33,12.47,12.86,18.06,.12,.44-.07,.9-.47,1.13-.16,.09-.33,.13-.5,.13-.26,0-.52-.1-.71-.3-.71-.72-1.48-1.4-2.21-2.04-.03-.03-.06-.06-.09-.09-.8-.9-1.72-1.85-2.8-2.92-.03-.03-.09-.08-.09-.08-3.8-3.67-8.41-7.26-13.73-10.68,.4,.76,.77,1.52,1.12,2.3,.32,.67,.63,1.38,.92,2.09,.29,.7,.57,1.42,.83,2.13,.32,.84,.6,1.71,.84,2.46,.13,.42,.27,.84,.39,1.28,.12,.39,.23,.81,.34,1.24,.09,.35,.19,.71,.27,1.09,.07,.26,.15,.6,.21,.92,.08,.3,.14,.63,.2,.98,.06,.24,.11,.54,.16,.83,.06,.33,.12,.68,.18,1.03,.08,.46,.14,.84,.18,1.23,.05,.33,.1,.7,.14,1.06,.35,2.96,.43,6,.24,9.01-.74,11.62-5.47,22.47-13.68,31.36-.2,.21-.47,.32-.74,.32-.22,0-.44-.07-.62-.22-.41-.33-.5-.92-.2-1.35,5.12-7.4,7.99-15.61,8.54-24.38,.29-4.45-.04-8.9-.98-13.29,.06,.96,.09,1.91,.09,2.87,0,17.45-9.1,31.74-28.64,44.98-.17,.12-.37,.17-.56,.17Z"/><path d="M252.53,419c35.69,0,66.5,11.21,80.87,27.42,10.91-5.59,21.1-12.29,30.4-19.94-1.78,4.11-5.27,8.64-10.19,13.24-3.36,3.14-7.39,6.31-11.99,9.38-.57,.37-1.14,.75-1.72,1.13,3.97,2.66,7.51,5.42,10.57,8.17h0c6.71,6.06,11.09,12.18,12.56,17.58-.72-.73-1.5-1.42-2.27-2.09-.88-.99-1.84-1.98-2.87-2.99-.02-.01-.05-.03-.07-.06-4.5-4.35-10.3-8.73-17.19-12.86,.02,.03,.03,.07,.04,.1,.07,.11,.14,.22,.2,.33,.23,.39,.45,.76,.66,1.13,.76,1.33,1.45,2.67,2.08,4.05,.32,.67,.62,1.36,.91,2.06,.29,.69,.56,1.4,.82,2.1,.3,.79,.57,1.61,.83,2.42,.13,.4,.26,.81,.37,1.23,.12,.41,.23,.82,.34,1.24,.09,.34,.18,.69,.26,1.05,.08,.29,.15,.6,.21,.9,.08,.32,.14,.63,.2,.96,.06,.27,.11,.55,.16,.83,.07,.37,.13,.74,.19,1.11,.06,.35,.12,.71,.16,1.08,.05,.35,.1,.72,.14,1.07,.34,2.9,.42,5.85,.23,8.83-.75,11.77-5.64,22.32-13.42,30.75,5.03-7.28,8.14-15.7,8.72-24.89,.45-6.99-.6-13.81-2.91-20.27-.84-2.35-1.85-4.66-3.01-6.9,1.05,2.85,1.85,5.78,2.35,8.78,.45,2.59,.68,5.23,.68,7.91,0,18.61-10.84,32.39-28.2,44.15,3.26-7.77,5.06-13.29,5.06-22.25,0-2.32-.12-4.62-.36-6.88-.22-2.11-.54-4.2-.96-6.25-.95,2.94-2.11,5.78-3.45,8.52-10.89,22.15-34.16,26.75-61.1,26.75-.1,0-.2,0-.3,0-.09,0-.18,0-.27,0h-.03c-.44,0-.87,0-1.31,0-26.92-.5-49.98-5.56-60.41-28.05-1.09-2.34-2.03-4.75-2.83-7.21-.35,1.7-.63,3.42-.84,5.17-.32,2.61-.48,5.26-.48,7.96,0,8.96,1.8,14.48,5.06,22.25-17.36-11.76-28.2-25.54-28.2-44.15,0-4,.52-7.93,1.49-11.73,.42-1.68,.94-3.33,1.54-4.96-.65,1.25-1.25,2.52-1.79,3.8-3.15,7.34-4.65,15.25-4.13,23.37,.58,9.19,3.69,17.61,8.72,24.89-7.78-8.43-12.67-18.98-13.42-30.75-.1-1.65-.13-3.28-.06-4.91,0-.33,.02-.65,.04-.99,.02-.36,.04-.74,.07-1.1,.02-.27,.04-.52,.07-.79,.07-.73,.15-1.47,.26-2.2,.05-.38,.11-.77,.17-1.15,.1-.61,.21-1.21,.33-1.81,.14-.73,.31-1.45,.49-2.17,.12-.52,.26-1.04,.4-1.55,.12-.44,.25-.88,.39-1.32,.16-.52,.33-1.04,.5-1.56,.12-.35,.24-.69,.37-1.03,.1-.28,.2-.56,.31-.83,.12-.32,.24-.63,.37-.94,.2-.49,.4-.98,.62-1.47,.12-.27,.24-.53,.36-.8,.15-.34,.31-.69,.48-1.02,.13-.28,.26-.54,.4-.82,.29-.58,.59-1.16,.91-1.73,.16-.3,.33-.61,.51-.9-3.72,2.28-7.1,4.61-10.12,6.95-2.3,1.45-4.47,2.97-6.51,4.56h0c-1.38,1.06-2.7,2.16-3.95,3.27,1.7-4.26,5.28-8.99,10.42-13.8,3.36-3.14,7.39-6.31,11.99-9.38,.57-.37,1.14-.75,1.72-1.13-3.97-2.66-7.51-5.42-10.57-8.17-5.45-4.92-9.36-9.88-11.43-14.47-.47-1.06-.85-2.1-1.13-3.11,.72,.73,1.5,1.42,2.27,2.1,.88,.98,1.84,1.97,2.87,2.99,.02,0,.05,.03,.07,.05,3.09,2.99,6.79,5.99,11.03,8.91,.09,.05,.18,.11,.26,.16,3.88,2.68,8.22,5.28,12.95,7.74,.04,.03,.08,.06,.13,.07,.05-.06,.1-.12,.15-.17,.07,.04,.15,.08,.22,.12,14.48-16.03,44.86-27.07,80.55-27.07m81.09,27.66s-.04-.05-.07-.07c0,0-.02,.01-.03,.01,.04,.02,.1,.06,.1,.06m-81.09-29.66c-34.47,0-65.37,10.22-81.13,26.75-4.23-2.25-8.18-4.63-11.74-7.09-.03-.02-.05-.03-.08-.05l-.05-.03c-.06-.04-.13-.08-.2-.12-4.08-2.81-7.68-5.72-10.71-8.66-.06-.06-.12-.11-.18-.16-1.04-1.04-1.92-1.95-2.67-2.78-.05-.06-.11-.11-.16-.16-.73-.65-1.49-1.32-2.17-2.01-.39-.39-.9-.6-1.42-.6-.34,0-.69,.09-1,.27-.79,.46-1.17,1.39-.93,2.27,.3,1.09,.72,2.23,1.23,3.39,2.18,4.84,6.3,10.08,11.92,15.14,2.55,2.29,5.34,4.52,8.34,6.65-4.33,2.94-8.2,5.99-11.51,9.08-5.42,5.07-9.09,9.96-10.91,14.52-.34,.86-.05,1.85,.71,2.38,.35,.24,.75,.36,1.15,.36,.48,0,.95-.17,1.33-.5,1.23-1.09,2.49-2.13,3.73-3.09,.05-.03,.09-.06,.13-.1,1.98-1.54,4.11-3.04,6.35-4.45,.05-.03,.11-.07,.16-.11,1.24-.96,2.54-1.92,3.89-2.87-.04,.11-.09,.21-.13,.32-.13,.31-.26,.63-.38,.97-.12,.29-.22,.59-.33,.89-.12,.32-.25,.68-.38,1.05-.18,.56-.36,1.09-.52,1.62-.14,.45-.28,.92-.41,1.38-.13,.48-.29,1.05-.42,1.63-.15,.58-.34,1.4-.51,2.24-.12,.61-.24,1.23-.34,1.86-.06,.41-.13,.82-.18,1.21-.12,.8-.21,1.64-.27,2.27-.03,.26-.05,.54-.07,.83-.03,.33-.05,.69-.07,1.04v.15c-.03,.34-.05,.67-.05,1.01-.07,1.6-.05,3.26,.06,5.08,.76,11.86,5.58,22.92,13.95,31.99,.39,.43,.93,.64,1.47,.64,.44,0,.88-.14,1.25-.44,.82-.66,.99-1.83,.4-2.7-5.01-7.25-7.83-15.29-8.37-23.88v-.14c2.97,13.32,12.06,24.81,27.97,35.59,.34,.23,.73,.34,1.12,.34,.45,0,.9-.15,1.27-.45,.68-.56,.92-1.5,.58-2.32-3.32-7.92-4.9-13.15-4.9-21.48,0-1.79,.07-3.57,.22-5.33,.04,.08,.08,.17,.12,.25,11.56,24.93,37.92,28.75,62.19,29.21,.45,.01,.89,.01,1.35,.01,.11,0,.19,0,.28,0h.07c.08,0,.17,0,.25,0,24.33,0,50.82-3.31,62.89-27.87,.26-.53,.51-1.06,.75-1.59,.15,1.75,.22,3.54,.22,5.32,0,8.32-1.58,13.56-4.9,21.48-.34,.82-.11,1.76,.58,2.32,.37,.3,.82,.45,1.27,.45,.39,0,.78-.11,1.12-.34,15.91-10.78,25-22.27,27.98-35.59v.14c-.55,8.59-3.37,16.63-8.38,23.88-.6,.86-.42,2.04,.4,2.7,.37,.29,.81,.44,1.25,.44,.54,0,1.08-.22,1.47-.64,8.37-9.07,13.19-20.13,13.95-31.98,.2-3.07,.12-6.16-.24-9.19-.04-.35-.09-.73-.14-1.09-.05-.41-.11-.8-.17-1.17-.06-.37-.12-.76-.2-1.14-.05-.27-.1-.57-.16-.85-.06-.31-.12-.65-.21-1-.07-.34-.14-.66-.22-.94-.08-.37-.18-.73-.27-1.08-.11-.42-.22-.84-.35-1.26-.13-.48-.27-.93-.4-1.31-.26-.81-.54-1.67-.86-2.51-.24-.64-.53-1.41-.85-2.16-.17-.41-.33-.79-.49-1.14,3.98,2.75,7.49,5.59,10.49,8.49,.07,.08,.15,.15,.23,.21,1.03,1.02,1.91,1.93,2.67,2.79,.06,.06,.12,.12,.18,.18,.72,.62,1.47,1.29,2.16,1.99,.39,.39,.9,.6,1.42,.6,.34,0,.69-.09,1-.27,.79-.45,1.17-1.38,.93-2.26-1.57-5.78-6.12-12.19-13.15-18.54-2.55-2.29-5.34-4.52-8.34-6.65,4.33-2.94,8.2-5.99,11.51-9.08,5.17-4.83,8.76-9.51,10.66-13.91,.37-.85,.11-1.84-.63-2.39-.36-.27-.78-.4-1.2-.4-.45,0-.9,.15-1.27,.46-8.83,7.27-18.48,13.66-28.69,19-7.41-7.84-18.51-14.46-32.23-19.2-14.64-5.06-31.61-7.74-49.08-7.74h0Z"/></g></g><g id="eyebrows"><g id="eyebrow"><g><path class="cls-3" d="M364.61,136.04c-23.34-8.94-43.1-.15-62.69,9.39-2.96,1.44-5.91,2.91-8.88,4.32-.7,.33-1.36,.63-2,.9-7.16,2.99-10.59,1.58-14.42-5.31-2.67-4.81-2.14-8.94,1.74-11.75v.03c-.48,4.42,1.18,8.53,4.09,11.14-1.3-2.31-1.92-5.1-1.6-8.03,.22-2.02,.86-3.88,1.82-5.48,4.17-2.05,8.38-3.96,12.65-5.65,.67-.27,1.35-.54,2.04-.78,11.86-4.49,24.19-7.25,37.26-6.71,12.84,.55,22.77,6.92,29.99,17.93h0Z"/><path class="cls-3" d="M130.4,150.64c23.8-13.14,46.39-8.06,68.91-2.21,3.4,.89,6.8,1.79,10.21,2.65,.8,.2,1.56,.37,2.29,.52,8.16,1.65,11.65-.38,14.73-7.9,2.16-5.26,.97-9.24-3.62-11.31v.03c1.18,4.28,0,8.66-2.74,11.78,1.05-2.53,1.31-5.4,.53-8.24-.54-1.96-1.51-3.68-2.78-5.09-4.8-1.27-9.61-2.38-14.46-3.27-.76-.14-1.54-.28-2.31-.4-13.45-2.27-27.13-2.74-41.13,.2-13.74,2.9-23.48,11.03-29.61,23.25h-.02Z"/></g></g></g><g id="whiskers"><g id="whiskers-2"><path d="M290.33,325.48c-5.92,0-5.93,9.2,0,9.2s5.93-9.2,0-9.2Z"/><path d="M308.31,328.04c5.92,0,5.93-9.2,0-9.2s-5.93,9.2,0,9.2Z"/><path d="M327.06,327.26c5.92,0,5.93-9.2,0-9.2s-5.93,9.2,0,9.2Z"/><path d="M299.32,344.24c-5.92,0-5.93,9.2,0,9.2s5.93-9.2,0-9.2Z"/><path d="M319.64,346.02c5.92,0,5.93-9.2,0-9.2s-5.93,9.2,0,9.2Z"/><path d="M340.74,347.97c5.92,0,5.93-9.2,0-9.2s-5.93,9.2,0,9.2Z"/><path d="M323.55,357.13c-5.92,0-5.93,9.2,0,9.2s5.93-9.2,0-9.2Z"/><path d="M298.93,376.11c5.92,0,5.93-9.2,0-9.2s-5.93,9.2,0,9.2Z"/><path d="M280.56,360.87c5.92,0,5.93-9.2,0-9.2s-5.93,9.2,0,9.2Z"/><path d="M213.87,335.66c5.92,0,5.93-9.2,0-9.2s-5.93,9.2,0,9.2Z"/><path d="M195.9,319.82c-5.92,0-5.93,9.2,0,9.2s5.93-9.2,0-9.2Z"/><path d="M177.14,328.24c5.92,0,5.93-9.2,0-9.2s-5.93,9.2,0,9.2Z"/><path d="M204.89,345.22c-5.92,0-5.93,9.2,0,9.2s5.93-9.2,0-9.2Z"/><path d="M184.57,337.79c-5.92,0-5.93,9.2,0,9.2s5.93-9.2,0-9.2Z"/><path d="M163.47,348.95c5.92,0,5.93-9.2,0-9.2s-5.93,9.2,0,9.2Z"/><path d="M180.66,358.11c-5.92,0-5.93,9.2,0,9.2s5.93-9.2,0-9.2Z"/><path d="M205.28,367.88c-5.92,0-5.93,9.2,0,9.2s5.93-9.2,0-9.2Z"/><path d="M223.64,352.64c-5.92,0-5.93,9.2,0,9.2s5.93-9.2,0-9.2Z"/></g></g><g id="mouth"><path d="M354.83,376.08h-.02c-.3-.47-.67-.9-1.11-1.28-.2-.17-.38-.34-.6-.48-.68-.56-1.39-.96-2.15-1.28-2.5-1.12-5.37-1.15-8.8-.4,1.9,1.63,3.23,2.78,4.94,4.27-.79,.79-1.57,1.53-2.32,2.27-8.07,2.2-16.15,4.08-24.2,5.66-9.5,1.89-19.01,3.35-28.48,4.48-4.41,.5-8.83-.57-12.5-3.07-.63-.43-1.33-.93-2-1.41-3.53-2.5-7.42-5.59-11.11-9.16-4.49-4.37-8.61-9.44-11.31-15.11-.82-1.72-1.31-3.57-1.45-5.44h-.01s0-.02,0-.03c0-.83-.79-1.51-1.76-1.51s-1.76,.68-1.76,1.51c0,.02,0,.04,0,.07-.16,1.86-.63,3.68-1.44,5.39-2.68,5.61-6.78,10.67-11.21,15.01-3.69,3.62-7.64,6.73-11.21,9.26-.68,.48-1.35,.98-1.98,1.41-3.67,2.47-8.1,3.57-12.5,3.05-9.46-1.1-18.93-2.59-28.43-4.45h.3c-9.27-1.82-18.55-4.03-27.86-6.65,2.49-2.32,3.96-3.67,6.15-5.68-5.08-.85-9.19-.51-11.9,3.06-.03,.02-.05,.05-.08,.09-.04,.04-.1,.12-.12,.16-.07,.08-.12,.14-.16,.22-2.84,4.24-1.35,8.6,.89,14.23,1.03-3.09,1.57-4.69,2.2-6.54,6.01,11.11,12.81,20.89,20.47,29.33v.34c6.23,6.81,13.02,12.71,20.45,17.57l8.46,4.96h.01s.07,.04,.12,.08l.22-.08-.2,.1s.1,.02,.14,.04c14.32,7.41,30.79,11.34,49.73,11.32,17.31-.03,32.55-3.36,45.94-9.56,.31-.15,.6-.29,.91-.44l8.66-4.69c9.69-5.91,18.32-13.52,26.02-22.58,6.58-7.76,12.46-16.61,17.72-26.41,.72,2,1.33,3.65,2.12,5.81,2.75-5.83,3.17-10.5,1.21-13.44Zm-33.81,37.17c-6.7,6.4-13.86,11.65-21.4,15.76-1.21,.65-2.44,1.3-3.69,1.9-2.22,1.08-4.47,2.06-6.73,2.97h-.02c-.7,.29-1.41,.56-2.1,.82-12.95,4.72-26.94,6.57-41.89,5.7-11.55-.69-22.38-3.11-32.44-7.38-.19-.04-.38-.12-.55-.22-.08-.02-.12-.04-.2-.09-.04,0-.07-.03-.12-.05-2.16-.93-4.32-1.96-6.41-3.07-1.37-.72-2.72-1.48-4.07-2.27-6.07-3.6-11.82-7.91-17.22-13-1.76-1.63-2.91-3.85-4.68-6.28,14.76,3.79,28.45,7.29,42.18,10.78,.02-.26,.07-.5,.1-.76-11.87-4.75-23.83-9.28-35.57-14.29-5.8-2.49-6.57-3.12-4.91-8.25,.3-.91,.67-1.95,1.1-3.18,13.5,2.57,27.06,4.29,40.61,5.37,6.96-3.98,12.37-8.2,16.48-12.16,10.08-9.7,12.78-18.04,12.78-18.04,0,0,2.58,8.24,12.34,17.84,4.11,4.07,9.48,8.34,16.47,12.37,13.51-1.08,27.02-2.86,40.53-5.51,.36,1.08,.68,2.03,.94,2.87,.02,.05,.04,.08,.04,.12,.11,.36,.22,.69,.31,1,1.3,4.48,.35,5.15-5.11,7.53-11.66,5.03-23.56,9.56-34,13.77,12.56-.93,26.09-4.62,40.23-9.46-.99,1.75-1.61,3.86-3.02,5.21h.02Z"/><g id="teeth"><path class="cls-1" d="M317.82,403.72c5.84-2.54,6.51-3.14,4.8-8.53,0-.05-.02-.07-.05-.12-.27-.84-.58-1.8-.94-2.88-13.53,2.66-27.03,4.43-40.54,5.51-6.99-4.03-12.37-8.29-16.47-12.37-9.77-9.59-12.35-17.83-12.35-17.83,0,0-2.7,8.34-12.78,18.05-4.12,3.95-9.53,8.17-16.49,12.15-13.55-1.08-27.1-2.8-40.61-5.37-2.87,8.15-3.01,8.51,3.81,11.43,11.74,5.01,23.7,9.54,35.57,14.28-.02,.26-.07,.5-.1,.77-13.72-3.5-27.42-7-42.18-10.79,1.76,2.42,2.92,4.65,4.68,6.28,5.4,5.08,11.14,9.4,17.22,12.99,1.35,.79,2.7,1.56,4.08,2.28,2.1,1.1,4.24,2.13,6.41,3.07,.05,.02,.07,.05,.12,.05,.07,.05,.12,.07,.19,.1,.17,.1,.36,.17,.55,.22,10.06,4.27,20.88,6.69,32.43,7.38,14.95,.86,28.94-.98,41.89-5.7,.7-.26,1.4-.53,2.1-.81h.02c2.27-.91,4.51-1.89,6.73-2.97,1.25-.6,2.48-1.25,3.69-1.89,7.55-4.12,14.71-9.37,21.41-15.77,1.4-1.34,2.03-3.45,3.01-5.2-14.13,4.84-27.66,8.53-40.22,9.47,10.44-4.22,22.33-8.75,34-13.78l.02-.02Zm-65.06-4.43s.02-.07,.02-.14c0,.07,.02,.1,.02,.17,0,0-.02-.02-.05-.02h0Z"/></g></g><g id="nose"><g id="nose-2"><path d="M317.71,288.16l.04,.04-6.49,7.1-6.53,7.16c-.81,.87-1.71,1.64-2.74,2.34-3.32,2.23-11.47,6.96-24.33,10.17-1.47,.37-2.88,.9-4.22,1.57-10.55,2.5-18.85,12.61-20.91,25.45-2.22-13.85-11.71-24.53-23.44-25.9-1.05-.47-2.13-.84-3.25-1.12-12.85-3.21-21-7.94-24.33-10.17-1.03-.7-1.94-1.47-2.73-2.34l-6.53-7.15-6.49-7.11,.05-.04c-.2-.32-.31-.68-.31-1.06,0-1.6,1.8-2.89,4.02-2.89,1.38,0,2.52,.53,3.27,1.28l5.92,5.81,.69,.68h.04c.71,.61,1.74,1.03,2.92,1.03,1.69,0,3.08-.8,3.6-1.88l.25-.04,2.35-2.05,.08,.03c.75-1.06,2.75-1.84,5.14-1.84,1.06,0,1.96,.19,2.79,.43,0,0,21.76,4.89,32.92,4.89,.72,0,1.47-.04,2.26-.07,.79,.03,1.53,.07,2.26,.07,5.58,0,13.81-1.23,20.64-2.44s12.27-2.44,12.27-2.44c.84-.24,1.76-.43,2.79-.43,2.42,0,4.39,.79,5.14,1.84l.09-.03,2.37,2.05,.24,.04c.51,1.07,1.89,1.88,3.58,1.88,1.21,0,2.22-.41,2.92-1.03h.07l.69-.68,5.92-5.81c.72-.75,1.86-1.28,3.25-1.28,2.21,0,4.04,1.28,4.04,2.89,0,.38-.14,.74-.31,1.06h0Z"/></g></g><g id="glasses"><g id="glasses-2"><path d="M416.44,186.19l-3.14,7.97-.49,1.27-.24,.58v.02l-5.53,14.09v.02l-6.59,16.81-8.24,20.99c-2.71,6.9-8.55,11.36-14.91,11.36h-72.66c-6.33,0-12.2-4.46-14.89-11.36l-21.49-54.76c-4.55-5.34-9.56-8.15-14.94-8.3-.15-.02-.31-.02-.47-.02-8.77,0-16.03,6.65-17.75,8.35l-21.47,54.73c-2.68,6.9-8.55,11.36-14.89,11.36H126.11c-6.36,0-12.2-4.46-14.92-11.36l-11.57-29.53-.15-.4v-.03l-7.57-19.27-.65-1.68v-.02l-.63-1.57-3.65-9.27c-2.7-6.93-1.92-14.96,2.06-20.93,3.12-4.7,7.82-7.38,12.86-7.38h121.08c5.06,0,9.74,2.68,12.87,7.38,3.31,4.98,4.26,11.35,2.98,17.33,3.76-2.17,8.46-4.06,13.8-4.06,.3,0,.58,0,.88,.02,3.82,.09,7.45,1.19,10.9,3.14-1.01-5.71,.07-11.72,3.2-16.44,3.13-4.7,7.81-7.38,12.88-7.38h121.07c5.04,0,9.75,2.68,12.86,7.38,3.99,5.97,4.76,14.02,2.06,20.93l-.03,.03Z"/></g></g></svg>