<svg width="528" height="252" viewBox="0 0 528 252" fill="none" xmlns="http://www.w3.org/2000/svg">
<path d="M3.77767 7.55782C5.86401 7.55782 7.55533 5.86594 7.55533 3.77891C7.55533 1.69187 5.86401 0 3.77767 0C1.69132 0 0 1.69187 0 3.77891C0 5.86594 1.69132 7.55782 3.77767 7.55782Z" fill="#49C7C9"/>
<path d="M3.77767 48.2998C5.86401 48.2998 7.55533 46.6079 7.55533 44.5209C7.55533 42.4338 5.86401 40.7419 3.77767 40.7419C1.69132 40.7419 0 42.4338 0 44.5209C0 46.6079 1.69132 48.2998 3.77767 48.2998Z" fill="#49C7C9"/>
<path d="M3.77767 89.0417C5.86401 89.0417 7.55533 87.3498 7.55533 85.2628C7.55533 83.1758 5.86401 81.4839 3.77767 81.4839C1.69132 81.4839 0 83.1758 0 85.2628C0 87.3498 1.69132 89.0417 3.77767 89.0417Z" fill="#49C7C9"/>
<path d="M3.77767 129.774C5.86401 129.774 7.55533 128.082 7.55533 125.995C7.55533 123.908 5.86401 122.216 3.77767 122.216C1.69132 122.216 0 123.908 0 125.995C0 128.082 1.69132 129.774 3.77767 129.774Z" fill="#49C7C9"/>
<path d="M3.77767 170.516C5.86401 170.516 7.55533 168.824 7.55533 166.737C7.55533 164.65 5.86401 162.958 3.77767 162.958C1.69132 162.958 0 164.65 0 166.737C0 168.824 1.69132 170.516 3.77767 170.516Z" fill="#49C7C9"/>
<path d="M3.77767 211.258C5.86401 211.258 7.55533 209.566 7.55533 207.479C7.55533 205.392 5.86401 203.7 3.77767 203.7C1.69132 203.7 0 205.392 0 207.479C0 209.566 1.69132 211.258 3.77767 211.258Z" fill="#49C7C9"/>
<path d="M3.77767 251.99C5.86401 251.99 7.55533 250.299 7.55533 248.212C7.55533 246.125 5.86401 244.433 3.77767 244.433C1.69132 244.433 0 246.125 0 248.212C0 250.299 1.69132 251.99 3.77767 251.99Z" fill="#49C7C9"/>
<path d="M38.479 7.55782C40.5654 7.55782 42.2567 5.86594 42.2567 3.77891C42.2567 1.69187 40.5654 0 38.479 0C36.3927 0 34.7014 1.69187 34.7014 3.77891C34.7014 5.86594 36.3927 7.55782 38.479 7.55782Z" fill="#49C7C9"/>
<path d="M38.479 48.2998C40.5654 48.2998 42.2567 46.6079 42.2567 44.5209C42.2567 42.4338 40.5654 40.7419 38.479 40.7419C36.3927 40.7419 34.7014 42.4338 34.7014 44.5209C34.7014 46.6079 36.3927 48.2998 38.479 48.2998Z" fill="#49C7C9"/>
<path d="M38.479 89.0417C40.5654 89.0417 42.2567 87.3498 42.2567 85.2628C42.2567 83.1758 40.5654 81.4839 38.479 81.4839C36.3927 81.4839 34.7014 83.1758 34.7014 85.2628C34.7014 87.3498 36.3927 89.0417 38.479 89.0417Z" fill="#49C7C9"/>
<path d="M38.479 129.774C40.5654 129.774 42.2567 128.082 42.2567 125.995C42.2567 123.908 40.5654 122.216 38.479 122.216C36.3927 122.216 34.7014 123.908 34.7014 125.995C34.7014 128.082 36.3927 129.774 38.479 129.774Z" fill="#49C7C9"/>
<path d="M38.479 170.516C40.5654 170.516 42.2567 168.824 42.2567 166.737C42.2567 164.65 40.5654 162.958 38.479 162.958C36.3927 162.958 34.7014 164.65 34.7014 166.737C34.7014 168.824 36.3927 170.516 38.479 170.516Z" fill="#49C7C9"/>
<path d="M38.479 211.258C40.5654 211.258 42.2567 209.566 42.2567 207.479C42.2567 205.392 40.5654 203.7 38.479 203.7C36.3927 203.7 34.7014 205.392 34.7014 207.479C34.7014 209.566 36.3927 211.258 38.479 211.258Z" fill="#49C7C9"/>
<path d="M38.479 251.99C40.5654 251.99 42.2567 250.299 42.2567 248.212C42.2567 246.125 40.5654 244.433 38.479 244.433C36.3927 244.433 34.7014 246.125 34.7014 248.212C34.7014 250.299 36.3927 251.99 38.479 251.99Z" fill="#49C7C9"/>
<path d="M73.1709 7.55782C75.2573 7.55782 76.9486 5.86594 76.9486 3.77891C76.9486 1.69187 75.2573 0 73.1709 0C71.0846 0 69.3932 1.69187 69.3932 3.77891C69.3932 5.86594 71.0846 7.55782 73.1709 7.55782Z" fill="#49C7C9"/>
<path d="M73.1709 48.2998C75.2573 48.2998 76.9486 46.6079 76.9486 44.5209C76.9486 42.4338 75.2573 40.7419 73.1709 40.7419C71.0846 40.7419 69.3933 42.4338 69.3933 44.5209C69.3933 46.6079 71.0846 48.2998 73.1709 48.2998Z" fill="#49C7C9"/>
<path d="M73.1709 89.0417C75.2573 89.0417 76.9486 87.3498 76.9486 85.2628C76.9486 83.1758 75.2573 81.4839 73.1709 81.4839C71.0846 81.4839 69.3933 83.1758 69.3933 85.2628C69.3933 87.3498 71.0846 89.0417 73.1709 89.0417Z" fill="#49C7C9"/>
<path d="M73.1709 129.774C75.2573 129.774 76.9486 128.082 76.9486 125.995C76.9486 123.908 75.2573 122.216 73.1709 122.216C71.0846 122.216 69.3933 123.908 69.3933 125.995C69.3933 128.082 71.0846 129.774 73.1709 129.774Z" fill="#49C7C9"/>
<path d="M73.1709 170.516C75.2573 170.516 76.9486 168.824 76.9486 166.737C76.9486 164.65 75.2573 162.958 73.1709 162.958C71.0846 162.958 69.3933 164.65 69.3933 166.737C69.3933 168.824 71.0846 170.516 73.1709 170.516Z" fill="#49C7C9"/>
<path d="M73.1709 211.258C75.2573 211.258 76.9486 209.566 76.9486 207.479C76.9486 205.392 75.2573 203.7 73.1709 203.7C71.0846 203.7 69.3933 205.392 69.3933 207.479C69.3933 209.566 71.0846 211.258 73.1709 211.258Z" fill="#49C7C9"/>
<path d="M73.1709 251.99C75.2573 251.99 76.9486 250.299 76.9486 248.212C76.9486 246.125 75.2573 244.433 73.1709 244.433C71.0846 244.433 69.3933 246.125 69.3933 248.212C69.3933 250.299 71.0846 251.99 73.1709 251.99Z" fill="#49C7C9"/>
<path d="M107.872 7.55782C109.959 7.55782 111.65 5.86594 111.65 3.77891C111.65 1.69187 109.959 0 107.872 0C105.786 0 104.095 1.69187 104.095 3.77891C104.095 5.86594 105.786 7.55782 107.872 7.55782Z" fill="#49C7C9"/>
<path d="M107.872 48.2998C109.959 48.2998 111.65 46.6079 111.65 44.5209C111.65 42.4338 109.959 40.7419 107.872 40.7419C105.786 40.7419 104.095 42.4338 104.095 44.5209C104.095 46.6079 105.786 48.2998 107.872 48.2998Z" fill="#49C7C9"/>
<path d="M107.872 89.0417C109.959 89.0417 111.65 87.3498 111.65 85.2628C111.65 83.1758 109.959 81.4839 107.872 81.4839C105.786 81.4839 104.095 83.1758 104.095 85.2628C104.095 87.3498 105.786 89.0417 107.872 89.0417Z" fill="#49C7C9"/>
<path d="M107.872 129.774C109.959 129.774 111.65 128.082 111.65 125.995C111.65 123.908 109.959 122.216 107.872 122.216C105.786 122.216 104.095 123.908 104.095 125.995C104.095 128.082 105.786 129.774 107.872 129.774Z" fill="#49C7C9"/>
<path d="M107.872 170.516C109.959 170.516 111.65 168.824 111.65 166.737C111.65 164.65 109.959 162.958 107.872 162.958C105.786 162.958 104.095 164.65 104.095 166.737C104.095 168.824 105.786 170.516 107.872 170.516Z" fill="#49C7C9"/>
<path d="M107.872 211.258C109.959 211.258 111.65 209.566 111.65 207.479C111.65 205.392 109.959 203.7 107.872 203.7C105.786 203.7 104.095 205.392 104.095 207.479C104.095 209.566 105.786 211.258 107.872 211.258Z" fill="#49C7C9"/>
<path d="M107.872 251.99C109.959 251.99 111.65 250.299 111.65 248.212C111.65 246.125 109.959 244.433 107.872 244.433C105.786 244.433 104.095 246.125 104.095 248.212C104.095 250.299 105.786 251.99 107.872 251.99Z" fill="#49C7C9"/>
<path d="M142.564 7.55782C144.651 7.55782 146.342 5.86594 146.342 3.77891C146.342 1.69187 144.651 0 142.564 0C140.478 0 138.786 1.69187 138.786 3.77891C138.786 5.86594 140.478 7.55782 142.564 7.55782Z" fill="#49C7C9"/>
<path d="M142.564 48.2998C144.651 48.2998 146.342 46.6079 146.342 44.5209C146.342 42.4338 144.651 40.7419 142.564 40.7419C140.478 40.7419 138.787 42.4338 138.787 44.5209C138.787 46.6079 140.478 48.2998 142.564 48.2998Z" fill="#49C7C9"/>
<path d="M142.564 89.0417C144.651 89.0417 146.342 87.3498 146.342 85.2628C146.342 83.1758 144.651 81.4839 142.564 81.4839C140.478 81.4839 138.787 83.1758 138.787 85.2628C138.787 87.3498 140.478 89.0417 142.564 89.0417Z" fill="#49C7C9"/>
<path d="M142.564 129.774C144.651 129.774 146.342 128.082 146.342 125.995C146.342 123.908 144.651 122.216 142.564 122.216C140.478 122.216 138.787 123.908 138.787 125.995C138.787 128.082 140.478 129.774 142.564 129.774Z" fill="#49C7C9"/>
<path d="M142.564 170.516C144.651 170.516 146.342 168.824 146.342 166.737C146.342 164.65 144.651 162.958 142.564 162.958C140.478 162.958 138.787 164.65 138.787 166.737C138.787 168.824 140.478 170.516 142.564 170.516Z" fill="#49C7C9"/>
<path d="M142.564 211.258C144.651 211.258 146.342 209.566 146.342 207.479C146.342 205.392 144.651 203.7 142.564 203.7C140.478 203.7 138.787 205.392 138.787 207.479C138.787 209.566 140.478 211.258 142.564 211.258Z" fill="#49C7C9"/>
<path d="M142.564 251.99C144.651 251.99 146.342 250.299 146.342 248.212C146.342 246.125 144.651 244.433 142.564 244.433C140.478 244.433 138.787 246.125 138.787 248.212C138.787 250.299 140.478 251.99 142.564 251.99Z" fill="#49C7C9"/>
<path d="M177.256 7.55782C179.342 7.55782 181.034 5.86594 181.034 3.77891C181.034 1.69187 179.342 0 177.256 0C175.17 0 173.478 1.69187 173.478 3.77891C173.478 5.86594 175.17 7.55782 177.256 7.55782Z" fill="#49C7C9"/>
<path d="M177.256 48.2998C179.342 48.2998 181.034 46.6079 181.034 44.5209C181.034 42.4338 179.342 40.7419 177.256 40.7419C175.17 40.7419 173.478 42.4338 173.478 44.5209C173.478 46.6079 175.17 48.2998 177.256 48.2998Z" fill="#49C7C9"/>
<path d="M177.256 89.0417C179.342 89.0417 181.034 87.3498 181.034 85.2628C181.034 83.1758 179.342 81.4839 177.256 81.4839C175.17 81.4839 173.478 83.1758 173.478 85.2628C173.478 87.3498 175.17 89.0417 177.256 89.0417Z" fill="#49C7C9"/>
<path d="M177.256 129.774C179.342 129.774 181.034 128.082 181.034 125.995C181.034 123.908 179.342 122.216 177.256 122.216C175.17 122.216 173.478 123.908 173.478 125.995C173.478 128.082 175.17 129.774 177.256 129.774Z" fill="#49C7C9"/>
<path d="M177.256 170.516C179.342 170.516 181.034 168.824 181.034 166.737C181.034 164.65 179.342 162.958 177.256 162.958C175.17 162.958 173.478 164.65 173.478 166.737C173.478 168.824 175.17 170.516 177.256 170.516Z" fill="#49C7C9"/>
<path d="M177.256 211.258C179.342 211.258 181.034 209.566 181.034 207.479C181.034 205.392 179.342 203.7 177.256 203.7C175.17 203.7 173.478 205.392 173.478 207.479C173.478 209.566 175.17 211.258 177.256 211.258Z" fill="#49C7C9"/>
<path d="M177.256 251.99C179.342 251.99 181.034 250.299 181.034 248.212C181.034 246.125 179.342 244.433 177.256 244.433C175.17 244.433 173.478 246.125 173.478 248.212C173.478 250.299 175.17 251.99 177.256 251.99Z" fill="#49C7C9"/>
<path d="M211.957 7.55782C214.044 7.55782 215.735 5.86594 215.735 3.77891C215.735 1.69187 214.044 0 211.957 0C209.871 0 208.18 1.69187 208.18 3.77891C208.18 5.86594 209.871 7.55782 211.957 7.55782Z" fill="#49C7C9"/>
<path d="M211.957 48.2998C214.044 48.2998 215.735 46.6079 215.735 44.5209C215.735 42.4338 214.044 40.7419 211.957 40.7419C209.871 40.7419 208.18 42.4338 208.18 44.5209C208.18 46.6079 209.871 48.2998 211.957 48.2998Z" fill="#49C7C9"/>
<path d="M211.957 89.0417C214.044 89.0417 215.735 87.3498 215.735 85.2628C215.735 83.1758 214.044 81.4839 211.957 81.4839C209.871 81.4839 208.18 83.1758 208.18 85.2628C208.18 87.3498 209.871 89.0417 211.957 89.0417Z" fill="#49C7C9"/>
<path d="M211.957 129.774C214.044 129.774 215.735 128.082 215.735 125.995C215.735 123.908 214.044 122.216 211.957 122.216C209.871 122.216 208.18 123.908 208.18 125.995C208.18 128.082 209.871 129.774 211.957 129.774Z" fill="#49C7C9"/>
<path d="M211.957 170.516C214.044 170.516 215.735 168.824 215.735 166.737C215.735 164.65 214.044 162.958 211.957 162.958C209.871 162.958 208.18 164.65 208.18 166.737C208.18 168.824 209.871 170.516 211.957 170.516Z" fill="#49C7C9"/>
<path d="M211.957 211.258C214.044 211.258 215.735 209.566 215.735 207.479C215.735 205.392 214.044 203.7 211.957 203.7C209.871 203.7 208.18 205.392 208.18 207.479C208.18 209.566 209.871 211.258 211.957 211.258Z" fill="#49C7C9"/>
<path d="M211.957 251.99C214.044 251.99 215.735 250.299 215.735 248.212C215.735 246.125 214.044 244.433 211.957 244.433C209.871 244.433 208.18 246.125 208.18 248.212C208.18 250.299 209.871 251.99 211.957 251.99Z" fill="#49C7C9"/>
<path d="M246.649 7.55782C248.736 7.55782 250.427 5.86594 250.427 3.77891C250.427 1.69187 248.736 0 246.649 0C244.563 0 242.872 1.69187 242.872 3.77891C242.872 5.86594 244.563 7.55782 246.649 7.55782Z" fill="#49C7C9"/>
<path d="M246.649 48.2998C248.736 48.2998 250.427 46.6079 250.427 44.5209C250.427 42.4338 248.736 40.7419 246.649 40.7419C244.563 40.7419 242.872 42.4338 242.872 44.5209C242.872 46.6079 244.563 48.2998 246.649 48.2998Z" fill="#49C7C9"/>
<path d="M246.649 89.0417C248.736 89.0417 250.427 87.3498 250.427 85.2628C250.427 83.1758 248.736 81.4839 246.649 81.4839C244.563 81.4839 242.872 83.1758 242.872 85.2628C242.872 87.3498 244.563 89.0417 246.649 89.0417Z" fill="#49C7C9"/>
<path d="M246.649 129.774C248.736 129.774 250.427 128.082 250.427 125.995C250.427 123.908 248.736 122.216 246.649 122.216C244.563 122.216 242.872 123.908 242.872 125.995C242.872 128.082 244.563 129.774 246.649 129.774Z" fill="#49C7C9"/>
<path d="M246.649 170.516C248.736 170.516 250.427 168.824 250.427 166.737C250.427 164.65 248.736 162.958 246.649 162.958C244.563 162.958 242.872 164.65 242.872 166.737C242.872 168.824 244.563 170.516 246.649 170.516Z" fill="#49C7C9"/>
<path d="M246.649 211.258C248.736 211.258 250.427 209.566 250.427 207.479C250.427 205.392 248.736 203.7 246.649 203.7C244.563 203.7 242.872 205.392 242.872 207.479C242.872 209.566 244.563 211.258 246.649 211.258Z" fill="#49C7C9"/>
<path d="M246.649 251.99C248.736 251.99 250.427 250.299 250.427 248.212C250.427 246.125 248.736 244.433 246.649 244.433C244.563 244.433 242.872 246.125 242.872 248.212C242.872 250.299 244.563 251.99 246.649 251.99Z" fill="#49C7C9"/>
<path d="M281.351 7.55782C283.437 7.55782 285.128 5.86594 285.128 3.77891C285.128 1.69187 283.437 0 281.351 0C279.264 0 277.573 1.69187 277.573 3.77891C277.573 5.86594 279.264 7.55782 281.351 7.55782Z" fill="#49C7C9"/>
<path d="M281.351 48.2998C283.437 48.2998 285.128 46.6079 285.128 44.5209C285.128 42.4338 283.437 40.7419 281.351 40.7419C279.264 40.7419 277.573 42.4338 277.573 44.5209C277.573 46.6079 279.264 48.2998 281.351 48.2998Z" fill="#49C7C9"/>
<path d="M281.351 89.0417C283.437 89.0417 285.128 87.3498 285.128 85.2628C285.128 83.1758 283.437 81.4839 281.351 81.4839C279.264 81.4839 277.573 83.1758 277.573 85.2628C277.573 87.3498 279.264 89.0417 281.351 89.0417Z" fill="#49C7C9"/>
<path d="M281.351 129.774C283.437 129.774 285.128 128.082 285.128 125.995C285.128 123.908 283.437 122.216 281.351 122.216C279.264 122.216 277.573 123.908 277.573 125.995C277.573 128.082 279.264 129.774 281.351 129.774Z" fill="#49C7C9"/>
<path d="M281.351 170.516C283.437 170.516 285.128 168.824 285.128 166.737C285.128 164.65 283.437 162.958 281.351 162.958C279.264 162.958 277.573 164.65 277.573 166.737C277.573 168.824 279.264 170.516 281.351 170.516Z" fill="#49C7C9"/>
<path d="M281.351 211.258C283.437 211.258 285.128 209.566 285.128 207.479C285.128 205.392 283.437 203.7 281.351 203.7C279.264 203.7 277.573 205.392 277.573 207.479C277.573 209.566 279.264 211.258 281.351 211.258Z" fill="#49C7C9"/>
<path d="M281.351 251.99C283.437 251.99 285.128 250.299 285.128 248.212C285.128 246.125 283.437 244.433 281.351 244.433C279.264 244.433 277.573 246.125 277.573 248.212C277.573 250.299 279.264 251.99 281.351 251.99Z" fill="#49C7C9"/>
<path d="M316.043 7.55782C318.129 7.55782 319.82 5.86594 319.82 3.77891C319.82 1.69187 318.129 0 316.043 0C313.956 0 312.265 1.69187 312.265 3.77891C312.265 5.86594 313.956 7.55782 316.043 7.55782Z" fill="#49C7C9"/>
<path d="M316.043 48.2998C318.129 48.2998 319.82 46.6079 319.82 44.5209C319.82 42.4338 318.129 40.7419 316.043 40.7419C313.956 40.7419 312.265 42.4338 312.265 44.5209C312.265 46.6079 313.956 48.2998 316.043 48.2998Z" fill="#49C7C9"/>
<path d="M316.043 89.0417C318.129 89.0417 319.82 87.3498 319.82 85.2628C319.82 83.1758 318.129 81.4839 316.043 81.4839C313.956 81.4839 312.265 83.1758 312.265 85.2628C312.265 87.3498 313.956 89.0417 316.043 89.0417Z" fill="#49C7C9"/>
<path d="M316.043 129.774C318.129 129.774 319.82 128.082 319.82 125.995C319.82 123.908 318.129 122.216 316.043 122.216C313.956 122.216 312.265 123.908 312.265 125.995C312.265 128.082 313.956 129.774 316.043 129.774Z" fill="#49C7C9"/>
<path d="M316.043 170.516C318.129 170.516 319.82 168.824 319.82 166.737C319.82 164.65 318.129 162.958 316.043 162.958C313.956 162.958 312.265 164.65 312.265 166.737C312.265 168.824 313.956 170.516 316.043 170.516Z" fill="#49C7C9"/>
<path d="M316.043 211.258C318.129 211.258 319.82 209.566 319.82 207.479C319.82 205.392 318.129 203.7 316.043 203.7C313.956 203.7 312.265 205.392 312.265 207.479C312.265 209.566 313.956 211.258 316.043 211.258Z" fill="#49C7C9"/>
<path d="M316.043 251.99C318.129 251.99 319.82 250.299 319.82 248.212C319.82 246.125 318.129 244.433 316.043 244.433C313.956 244.433 312.265 246.125 312.265 248.212C312.265 250.299 313.956 251.99 316.043 251.99Z" fill="#49C7C9"/>
<path d="M350.734 7.55782C352.821 7.55782 354.512 5.86594 354.512 3.77891C354.512 1.69187 352.821 0 350.734 0C348.648 0 346.957 1.69187 346.957 3.77891C346.957 5.86594 348.648 7.55782 350.734 7.55782Z" fill="#49C7C9"/>
<path d="M350.734 48.2998C352.821 48.2998 354.512 46.6079 354.512 44.5209C354.512 42.4338 352.821 40.7419 350.734 40.7419C348.648 40.7419 346.957 42.4338 346.957 44.5209C346.957 46.6079 348.648 48.2998 350.734 48.2998Z" fill="#49C7C9"/>
<path d="M350.734 89.0417C352.821 89.0417 354.512 87.3498 354.512 85.2628C354.512 83.1758 352.821 81.4839 350.734 81.4839C348.648 81.4839 346.957 83.1758 346.957 85.2628C346.957 87.3498 348.648 89.0417 350.734 89.0417Z" fill="#49C7C9"/>
<path d="M350.734 129.774C352.821 129.774 354.512 128.082 354.512 125.995C354.512 123.908 352.821 122.216 350.734 122.216C348.648 122.216 346.957 123.908 346.957 125.995C346.957 128.082 348.648 129.774 350.734 129.774Z" fill="#49C7C9"/>
<path d="M350.734 170.516C352.821 170.516 354.512 168.824 354.512 166.737C354.512 164.65 352.821 162.958 350.734 162.958C348.648 162.958 346.957 164.65 346.957 166.737C346.957 168.824 348.648 170.516 350.734 170.516Z" fill="#49C7C9"/>
<path d="M350.734 211.258C352.821 211.258 354.512 209.566 354.512 207.479C354.512 205.392 352.821 203.7 350.734 203.7C348.648 203.7 346.957 205.392 346.957 207.479C346.957 209.566 348.648 211.258 350.734 211.258Z" fill="#49C7C9"/>
<path d="M350.734 251.99C352.821 251.99 354.512 250.299 354.512 248.212C354.512 246.125 352.821 244.433 350.734 244.433C348.648 244.433 346.957 246.125 346.957 248.212C346.957 250.299 348.648 251.99 350.734 251.99Z" fill="#49C7C9"/>
<path d="M385.436 7.55782C387.522 7.55782 389.213 5.86594 389.213 3.77891C389.213 1.69187 387.522 0 385.436 0C383.349 0 381.658 1.69187 381.658 3.77891C381.658 5.86594 383.349 7.55782 385.436 7.55782Z" fill="#49C7C9"/>
<path d="M385.436 48.2998C387.522 48.2998 389.213 46.6079 389.213 44.5209C389.213 42.4338 387.522 40.7419 385.436 40.7419C383.349 40.7419 381.658 42.4338 381.658 44.5209C381.658 46.6079 383.349 48.2998 385.436 48.2998Z" fill="#49C7C9"/>
<path d="M385.436 89.0417C387.522 89.0417 389.213 87.3498 389.213 85.2628C389.213 83.1758 387.522 81.4839 385.436 81.4839C383.349 81.4839 381.658 83.1758 381.658 85.2628C381.658 87.3498 383.349 89.0417 385.436 89.0417Z" fill="#49C7C9"/>
<path d="M385.436 129.774C387.522 129.774 389.213 128.082 389.213 125.995C389.213 123.908 387.522 122.216 385.436 122.216C383.349 122.216 381.658 123.908 381.658 125.995C381.658 128.082 383.349 129.774 385.436 129.774Z" fill="#49C7C9"/>
<path d="M385.436 170.516C387.522 170.516 389.213 168.824 389.213 166.737C389.213 164.65 387.522 162.958 385.436 162.958C383.349 162.958 381.658 164.65 381.658 166.737C381.658 168.824 383.349 170.516 385.436 170.516Z" fill="#49C7C9"/>
<path d="M385.436 211.258C387.522 211.258 389.213 209.566 389.213 207.479C389.213 205.392 387.522 203.7 385.436 203.7C383.349 203.7 381.658 205.392 381.658 207.479C381.658 209.566 383.349 211.258 385.436 211.258Z" fill="#49C7C9"/>
<path d="M385.436 251.99C387.522 251.99 389.213 250.299 389.213 248.212C389.213 246.125 387.522 244.433 385.436 244.433C383.349 244.433 381.658 246.125 381.658 248.212C381.658 250.299 383.349 251.99 385.436 251.99Z" fill="#49C7C9"/>
<path d="M420.128 7.55782C422.214 7.55782 423.905 5.86594 423.905 3.77891C423.905 1.69187 422.214 0 420.128 0C418.041 0 416.35 1.69187 416.35 3.77891C416.35 5.86594 418.041 7.55782 420.128 7.55782Z" fill="#49C7C9"/>
<path d="M420.128 48.2998C422.214 48.2998 423.905 46.6079 423.905 44.5209C423.905 42.4338 422.214 40.7419 420.128 40.7419C418.041 40.7419 416.35 42.4338 416.35 44.5209C416.35 46.6079 418.041 48.2998 420.128 48.2998Z" fill="#49C7C9"/>
<path d="M420.128 89.0417C422.214 89.0417 423.905 87.3498 423.905 85.2628C423.905 83.1758 422.214 81.4839 420.128 81.4839C418.041 81.4839 416.35 83.1758 416.35 85.2628C416.35 87.3498 418.041 89.0417 420.128 89.0417Z" fill="#49C7C9"/>
<path d="M420.128 129.774C422.214 129.774 423.905 128.082 423.905 125.995C423.905 123.908 422.214 122.216 420.128 122.216C418.041 122.216 416.35 123.908 416.35 125.995C416.35 128.082 418.041 129.774 420.128 129.774Z" fill="#49C7C9"/>
<path d="M420.128 170.516C422.214 170.516 423.905 168.824 423.905 166.737C423.905 164.65 422.214 162.958 420.128 162.958C418.041 162.958 416.35 164.65 416.35 166.737C416.35 168.824 418.041 170.516 420.128 170.516Z" fill="#49C7C9"/>
<path d="M420.128 211.258C422.214 211.258 423.905 209.566 423.905 207.479C423.905 205.392 422.214 203.7 420.128 203.7C418.041 203.7 416.35 205.392 416.35 207.479C416.35 209.566 418.041 211.258 420.128 211.258Z" fill="#49C7C9"/>
<path d="M420.128 251.99C422.214 251.99 423.905 250.299 423.905 248.212C423.905 246.125 422.214 244.433 420.128 244.433C418.041 244.433 416.35 246.125 416.35 248.212C416.35 250.299 418.041 251.99 420.128 251.99Z" fill="#49C7C9"/>
<path d="M454.829 7.55782C456.915 7.55782 458.607 5.86594 458.607 3.77891C458.607 1.69187 456.915 0 454.829 0C452.743 0 451.051 1.69187 451.051 3.77891C451.051 5.86594 452.743 7.55782 454.829 7.55782Z" fill="#49C7C9"/>
<path d="M454.829 48.2998C456.915 48.2998 458.607 46.6079 458.607 44.5209C458.607 42.4338 456.915 40.7419 454.829 40.7419C452.743 40.7419 451.051 42.4338 451.051 44.5209C451.051 46.6079 452.743 48.2998 454.829 48.2998Z" fill="#49C7C9"/>
<path d="M454.829 89.0417C456.915 89.0417 458.607 87.3498 458.607 85.2628C458.607 83.1758 456.915 81.4839 454.829 81.4839C452.743 81.4839 451.051 83.1758 451.051 85.2628C451.051 87.3498 452.743 89.0417 454.829 89.0417Z" fill="#49C7C9"/>
<path d="M454.829 129.774C456.915 129.774 458.607 128.082 458.607 125.995C458.607 123.908 456.915 122.216 454.829 122.216C452.743 122.216 451.051 123.908 451.051 125.995C451.051 128.082 452.743 129.774 454.829 129.774Z" fill="#49C7C9"/>
<path d="M454.829 170.516C456.915 170.516 458.607 168.824 458.607 166.737C458.607 164.65 456.915 162.958 454.829 162.958C452.743 162.958 451.051 164.65 451.051 166.737C451.051 168.824 452.743 170.516 454.829 170.516Z" fill="#49C7C9"/>
<path d="M454.829 211.258C456.915 211.258 458.607 209.566 458.607 207.479C458.607 205.392 456.915 203.7 454.829 203.7C452.743 203.7 451.051 205.392 451.051 207.479C451.051 209.566 452.743 211.258 454.829 211.258Z" fill="#49C7C9"/>
<path d="M454.829 251.99C456.915 251.99 458.607 250.299 458.607 248.212C458.607 246.125 456.915 244.433 454.829 244.433C452.743 244.433 451.051 246.125 451.051 248.212C451.051 250.299 452.743 251.99 454.829 251.99Z" fill="#49C7C9"/>
<path d="M489.521 7.55782C491.607 7.55782 493.299 5.86594 493.299 3.77891C493.299 1.69187 491.607 0 489.521 0C487.435 0 485.743 1.69187 485.743 3.77891C485.743 5.86594 487.435 7.55782 489.521 7.55782Z" fill="#49C7C9"/>
<path d="M489.521 48.2998C491.607 48.2998 493.299 46.6079 493.299 44.5209C493.299 42.4338 491.607 40.7419 489.521 40.7419C487.435 40.7419 485.743 42.4338 485.743 44.5209C485.743 46.6079 487.435 48.2998 489.521 48.2998Z" fill="#49C7C9"/>
<path d="M489.521 89.0417C491.607 89.0417 493.299 87.3498 493.299 85.2628C493.299 83.1758 491.607 81.4839 489.521 81.4839C487.435 81.4839 485.743 83.1758 485.743 85.2628C485.743 87.3498 487.435 89.0417 489.521 89.0417Z" fill="#49C7C9"/>
<path d="M489.521 129.774C491.607 129.774 493.299 128.082 493.299 125.995C493.299 123.908 491.607 122.216 489.521 122.216C487.435 122.216 485.743 123.908 485.743 125.995C485.743 128.082 487.435 129.774 489.521 129.774Z" fill="#49C7C9"/>
<path d="M489.521 170.516C491.607 170.516 493.299 168.824 493.299 166.737C493.299 164.65 491.607 162.958 489.521 162.958C487.435 162.958 485.743 164.65 485.743 166.737C485.743 168.824 487.435 170.516 489.521 170.516Z" fill="#49C7C9"/>
<path d="M489.521 211.258C491.607 211.258 493.299 209.566 493.299 207.479C493.299 205.392 491.607 203.7 489.521 203.7C487.435 203.7 485.743 205.392 485.743 207.479C485.743 209.566 487.435 211.258 489.521 211.258Z" fill="#49C7C9"/>
<path d="M489.521 251.99C491.607 251.99 493.299 250.299 493.299 248.212C493.299 246.125 491.607 244.433 489.521 244.433C487.435 244.433 485.743 246.125 485.743 248.212C485.743 250.299 487.435 251.99 489.521 251.99Z" fill="#49C7C9"/>
<path d="M524.213 7.55782C526.299 7.55782 527.99 5.86594 527.99 3.77891C527.99 1.69187 526.299 0 524.213 0C522.126 0 520.435 1.69187 520.435 3.77891C520.435 5.86594 522.126 7.55782 524.213 7.55782Z" fill="#49C7C9"/>
<path d="M524.213 48.2998C526.299 48.2998 527.991 46.6079 527.991 44.5209C527.991 42.4338 526.299 40.7419 524.213 40.7419C522.126 40.7419 520.435 42.4338 520.435 44.5209C520.435 46.6079 522.126 48.2998 524.213 48.2998Z" fill="#49C7C9"/>
<path d="M524.213 89.0417C526.299 89.0417 527.991 87.3498 527.991 85.2628C527.991 83.1758 526.299 81.4839 524.213 81.4839C522.126 81.4839 520.435 83.1758 520.435 85.2628C520.435 87.3498 522.126 89.0417 524.213 89.0417Z" fill="#49C7C9"/>
<path d="M524.213 129.774C526.299 129.774 527.991 128.082 527.991 125.995C527.991 123.908 526.299 122.216 524.213 122.216C522.126 122.216 520.435 123.908 520.435 125.995C520.435 128.082 522.126 129.774 524.213 129.774Z" fill="#49C7C9"/>
<path d="M524.213 170.516C526.299 170.516 527.991 168.824 527.991 166.737C527.991 164.65 526.299 162.958 524.213 162.958C522.126 162.958 520.435 164.65 520.435 166.737C520.435 168.824 522.126 170.516 524.213 170.516Z" fill="#49C7C9"/>
<path d="M524.213 211.258C526.299 211.258 527.991 209.566 527.991 207.479C527.991 205.392 526.299 203.7 524.213 203.7C522.126 203.7 520.435 205.392 520.435 207.479C520.435 209.566 522.126 211.258 524.213 211.258Z" fill="#49C7C9"/>
<path d="M524.213 251.99C526.299 251.99 527.991 250.299 527.991 248.212C527.991 246.125 526.299 244.433 524.213 244.433C522.126 244.433 520.435 246.125 520.435 248.212C520.435 250.299 522.126 251.99 524.213 251.99Z" fill="#49C7C9"/>
</svg>
