<svg width="47" height="25" viewBox="0 0 47 25" fill="none" xmlns="http://www.w3.org/2000/svg">
<g clip-path="url(#clip0_197_480)">
<path d="M2.74681 0.552643C1.22985 0.552643 0 1.79174 0 3.32011C0 4.84847 1.22985 6.08757 2.74681 6.08757C4.26377 6.08757 5.49362 4.84847 5.49362 3.32011C5.49362 1.79174 4.26377 0.552643 2.74681 0.552643ZM2.74681 4.65203C2.01833 4.65203 1.42483 4.05407 1.42483 3.32011C1.42483 2.58615 2.01833 1.98818 2.74681 1.98818C3.47529 1.98818 4.06879 2.58615 4.06879 3.32011C4.06879 4.05407 3.47529 4.65203 2.74681 4.65203V4.65203Z" fill="white"/>
<path d="M44.2554 0.552635C42.762 0.552635 41.5471 1.75288 41.5085 3.24886V3.39134C41.5471 4.88516 42.762 6.0854 44.2554 6.0854C45.7487 6.0854 47.0022 4.84631 47.0022 3.31794C47.0022 1.78957 45.7723 0.550476 44.2554 0.550476V0.552635ZM44.2554 4.65202C43.5269 4.65202 42.9334 4.05406 42.9334 3.3201C42.9334 2.58614 43.5269 1.98818 44.2554 1.98818C44.9838 1.98818 45.5773 2.58614 45.5773 3.3201C45.5773 4.05406 44.9838 4.65202 44.2554 4.65202Z" fill="white"/>
<path d="M1.4184 19.817V25.0022H6.56277V19.817H1.4184ZM4.99867 23.4242H2.98249V21.395H4.99653V23.4242H4.99867Z" fill="white"/>
<path d="M41.1036 19.817V25.0022H46.2501V19.817H41.1036ZM44.6839 23.4242H42.6698V21.395H44.6839V23.4242Z" fill="white"/>
<path d="M44.2875 19.817H42.9805C41.26 11.7024 34.6758 5.52631 26.8446 4.22029V2.71567L41.5107 2.74589V3.24887C41.5107 3.27261 41.5107 3.29636 41.5107 3.32011C41.5107 3.34385 41.5107 3.3676 41.5107 3.39134V4.0368L31.0141 4.01521C33.0624 4.7945 34.9993 5.90408 36.7455 7.31803C40.6365 10.4633 43.3126 14.8994 44.2896 19.817H44.2875Z" fill="white"/>
<path d="M19.2491 2.70053V4.51601C12.0478 6.2991 6.20279 12.2399 4.60441 19.8169H3.29529C4.2166 15.152 6.69345 10.8756 10.2737 7.76918C12.1635 6.13072 14.3168 4.85277 16.6094 3.98928L5.48931 3.9677V2.67679L19.2469 2.70485L19.2491 2.70053Z" fill="white"/>
<path d="M19.2491 0V7.65046H26.8424V0H19.2491ZM25.4198 6.21708H20.6739V1.43554H25.4198V6.21708V6.21708Z" fill="white"/>
</g>
<defs>
<clipPath id="clip0_197_480">
<rect width="47" height="25" fill="white"/>
</clipPath>
</defs>
</svg>
